M48
; DRILL file {KiCad (6.0.10)} date tor 29 dec 2022 21:48:27
; FORMAT={-:-/ absolute / inch / decimal}
; #@! TF.CreationDate,2022-12-29T21:48:27+01:00
; #@! TF.GenerationSoftware,Kicad,Pcbnew,(6.0.10)
; #@! TF.FileFunction,Plated,1,4,PTH
FMAT,2
INCH
; #@! TA.AperFunction,Plated,PTH,ViaDrill
T1C0.0157
; #@! TA.AperFunction,Plated,PTH,ComponentDrill
T2C0.0300
; #@! TA.AperFunction,Plated,PTH,ComponentDrill
T3C0.0315
; #@! TA.AperFunction,Plated,PTH,ComponentDrill
T4C0.0394
%
G90
G05
T1
X4.5866Y-2.7953
X4.6063Y-2.9724
X4.6063Y-4.4291
X4.626Y-2.3819
X4.626Y-2.5197
X4.626Y-3.3268
X4.6457Y-3.1299
X4.685Y-3.622
X4.685Y-3.6811
X4.685Y-4.9409
X4.7047Y-3.4843
X4.7244Y-2.7165
X4.7244Y-5.1969
X4.7244Y-5.5315
X4.7441Y-2.6772
X4.7638Y-2.4606
X4.7835Y-4.1535
X4.7835Y-4.5079
X4.8228Y-5.6299
X4.8425Y-4.8425
X4.8819Y-5.374
X4.9016Y-2.3031
X4.9213Y-2.5787
X4.9213Y-3.5827
X4.9213Y-4.0551
X4.9213Y-5.0984
X5.0Y-2.1063
X5.0Y-3.6811
X5.0Y-4.1535
X5.0591Y-3.1102
X5.0787Y-4.8622
X5.0984Y-5.7087
X5.1181Y-4.1535
X5.1378Y-2.4606
X5.1378Y-4.4882
X5.1378Y-6.122
X5.1575Y-2.7953
X5.1575Y-3.4252
X5.1575Y-3.6614
X5.1575Y-3.7402
X5.1772Y-2.9921
X5.1969Y-3.2087
X5.2559Y-3.2874
X5.2559Y-5.2362
X5.2953Y-4.4291
X5.315Y-4.0157
X5.315Y-4.2126
X5.315Y-4.5079
X5.3346Y-3.3071
X5.3543Y-2.5787
X5.3937Y-4.4094
X5.4134Y-5.7087
X5.4331Y-3.7992
X5.4331Y-4.8425
X5.4331Y-5.1575
X5.4528Y-3.4843
X5.4921Y-2.3622
X5.4921Y-2.8543
X5.4921Y-4.0354
X5.5118Y-2.5197
X5.5118Y-3.7008
X5.5118Y-4.1929
X5.5118Y-5.2756
X5.5118Y-6.122
X5.5315Y-2.0472
X5.5709Y-5.6693
X5.5906Y-4.9213
X5.6102Y-5.0591
X5.6693Y-2.874
X5.689Y-2.7756
X5.689Y-4.1339
X5.7283Y-4.7638
X5.7677Y-2.7559
X5.8268Y-2.8543
X5.8268Y-6.1417
X5.8465Y-4.0354
X5.8661Y-2.3622
X5.8661Y-4.4291
X5.8661Y-5.4921
X5.9843Y-3.7598
X6.0236Y-4.8228
X6.1614Y-2.3622
X6.1614Y-2.815
X6.2205Y-5.7677
X6.2205Y-5.9449
X6.2598Y-2.8543
X6.2598Y-5.4331
X6.2992Y-4.4882
X6.3386Y-6.1024
X6.3583Y-5.8465
X6.3976Y-2.3622
X6.437Y-3.4252
X6.4567Y-5.4921
X6.4961Y-3.6417
X6.4961Y-5.2953
X6.5354Y-4.6654
X6.5354Y-5.7283
X6.5551Y-3.4449
X6.5945Y-4.5276
X6.6142Y-3.7402
X6.6732Y-4.3898
X6.6732Y-4.6457
X6.6929Y-4.5079
X6.6929Y-5.2756
X6.7126Y-2.1457
X6.7126Y-5.5709
X6.7323Y-2.6772
X6.7323Y-4.1339
X6.752Y-2.3031
X6.752Y-5.9449
X6.8307Y-5.4331
X6.8307Y-6.0827
X6.8504Y-2.4213
X6.8701Y-4.0551
X6.9094Y-2.7165
X6.9094Y-5.8465
X7.0079Y-5.6102
X7.0276Y-2.6181
X7.0472Y-2.1654
X7.0472Y-2.5787
X7.1063Y-2.7362
X7.1063Y-4.1929
X7.1063Y-5.7283
X7.1457Y-2.3622
X7.1654Y-6.0236
X7.2244Y-4.0157
X7.3031Y-4.4882
X7.3037Y-5.2916
X7.3425Y-3.7205
X7.4409Y-3.7205
X7.4409Y-4.4488
X7.4606Y-5.5315
X7.4606Y-5.8858
X7.4626Y-5.3201
X7.4803Y-5.7283
X7.5787Y-2.5
X7.6969Y-2.3819
X7.7165Y-2.2244
X7.7165Y-5.5512
X7.7165Y-5.9252
X7.7362Y-3.8583
X7.7362Y-5.0591
X7.7559Y-4.1535
X7.7756Y-3.7402
X7.7953Y-3.248
X7.7953Y-3.9567
X7.7953Y-4.3307
X7.815Y-2.6181
X7.815Y-4.4094
X7.815Y-6.1614
X7.8543Y-3.0512
X7.8543Y-4.9606
X7.874Y-3.2283
X7.8937Y-3.8976
X7.8937Y-5.689
X7.9524Y-3.3409
X7.9921Y-3.1693
X8.0118Y-5.2362
X8.0118Y-6.1614
X8.0315Y-4.0354
X8.0315Y-5.9055
X8.0512Y-3.248
X8.0512Y-4.7441
X8.0709Y-2.5591
X8.0906Y-2.4606
X8.1299Y-4.4882
X8.1496Y-4.0748
X8.2087Y-4.9016
X8.2087Y-5.689
X8.2283Y-4.4882
X8.248Y-3.7008
X8.2677Y-2.7953
X8.2677Y-3.1102
X8.3268Y-2.1457
X8.3268Y-2.5591
X8.3268Y-3.248
X8.3268Y-5.0984
X8.3465Y-4.0551
X8.3661Y-4.8819
X8.3661Y-5.3346
X8.3858Y-2.3622
X8.4055Y-3.1102
X8.4055Y-4.1732
X8.4055Y-5.5906
X8.4055Y-6.0039
X8.4252Y-3.7008
X8.5039Y-2.6378
X8.563Y-6.1417
X8.5827Y-4.7835
X8.6024Y-2.2835
X8.6024Y-3.2283
X8.6024Y-5.0394
X8.6024Y-5.748
X8.622Y-5.9646
X8.6417Y-2.5
X8.6417Y-4.5669
X8.6445Y-5.3799
X8.6614Y-2.7165
X8.6614Y-3.4449
X8.6614Y-3.7402
X8.6614Y-4.0945
X8.7205Y-2.9724
X8.7402Y-2.126
X8.7795Y-2.3819
X8.7992Y-5.2559
X8.8583Y-4.1142
X8.8583Y-4.685
X8.878Y-2.9528
X8.878Y-3.5433
X8.937Y-5.2953
X9.0354Y-2.3425
X9.0354Y-2.9921
X9.0354Y-3.5433
X9.0354Y-3.8976
X9.0354Y-4.2323
X9.0551Y-4.685
T2
X4.7177Y-3.9094
X4.7177Y-4.3094
X4.8177Y-3.9094
X4.8177Y-4.3094
X4.9177Y-3.9094
X4.9177Y-4.3094
X5.0177Y-3.9094
X5.0177Y-4.3094
X5.0591Y-2.274
X5.0591Y-2.674
X5.1177Y-3.9094
X5.1177Y-4.3094
X5.1591Y-2.274
X5.1591Y-2.674
X5.2177Y-3.9094
X5.2177Y-4.3094
X5.2591Y-2.274
X5.2591Y-2.674
X5.3591Y-2.274
X5.3591Y-2.674
X5.4329Y-3.9094
X5.4329Y-4.3094
X5.4591Y-2.274
X5.4591Y-2.674
X5.5329Y-3.9094
X5.5329Y-4.3094
X5.5591Y-2.274
X5.5591Y-2.674
X5.6329Y-3.9094
X5.6329Y-4.3094
X5.7091Y-2.2689
X5.7091Y-2.6689
X5.7329Y-3.9094
X5.7329Y-4.3094
X5.8091Y-2.2689
X5.8091Y-2.6689
X5.8329Y-3.9094
X5.8329Y-4.3094
X5.9091Y-2.2689
X5.9091Y-2.6689
X5.9329Y-3.9094
X5.9329Y-4.3094
X6.0091Y-2.2689
X6.0091Y-2.6689
X6.1091Y-2.2689
X6.1091Y-2.6689
X6.2091Y-2.2689
X6.2091Y-2.6689
X6.6854Y-3.887
X6.6854Y-4.287
X6.7854Y-3.887
X6.7854Y-4.287
X6.8854Y-3.887
X6.8854Y-4.287
X6.9854Y-3.887
X6.9854Y-4.287
X7.0854Y-3.887
X7.0854Y-4.287
X7.1854Y-3.887
X7.1854Y-4.287
X7.9843Y-3.8882
X7.9843Y-4.2882
X8.0843Y-3.8882
X8.0843Y-4.2882
X8.1843Y-3.8882
X8.1843Y-4.2882
X8.2843Y-3.8882
X8.2843Y-4.2882
X8.3843Y-3.8882
X8.3843Y-4.2882
X8.4843Y-3.8882
X8.4843Y-4.2882
T3
X4.9016Y-2.815
X4.9016Y-3.0118
X4.9016Y-3.1984
X4.9016Y-3.3953
X5.122Y-5.4185
X5.122Y-6.0185
X5.4262Y-5.4185
X5.4262Y-6.0185
X5.7304Y-5.4185
X5.7304Y-6.0185
X6.0346Y-5.4185
X6.0346Y-6.0185
X7.2873Y-2.2079
X7.2873Y-2.8079
X7.2996Y-5.4138
X7.2996Y-6.0138
X7.5552Y-2.2079
X7.5552Y-2.8079
X7.5916Y-5.4138
X7.5916Y-6.0138
X7.8231Y-2.2079
X7.8231Y-2.8079
X7.8836Y-5.4138
X7.8836Y-6.0138
X8.0909Y-2.2079
X8.0909Y-2.8079
X8.1756Y-5.4138
X8.1756Y-6.0138
T4
X4.8898Y-4.6437
X4.9898Y-4.6437
X5.0898Y-4.6437
X5.1898Y-4.6437
X5.2898Y-4.6437
X5.3898Y-4.6437
X5.4035Y-3.0256
X5.4898Y-4.6437
X5.5035Y-3.0256
X5.5898Y-4.6437
X5.6035Y-3.0256
X5.6083Y-3.1874
X5.6083Y-3.2874
X5.6898Y-4.6437
X5.7035Y-3.0256
X5.7083Y-3.1874
X5.7083Y-3.2874
X5.7898Y-4.6437
X5.8083Y-3.1874
X5.8083Y-3.2874
X5.8898Y-4.6437
X5.8986Y-3.0232
X5.9083Y-3.1874
X5.9083Y-3.2874
X5.9661Y-4.9874
X5.9661Y-5.0874
X5.9898Y-4.6437
X5.9986Y-3.0232
X6.0083Y-3.1874
X6.0083Y-3.2874
X6.063Y-5.2559
X6.0661Y-4.9874
X6.0661Y-5.0874
X6.0898Y-4.6437
X6.0986Y-3.0232
X6.1083Y-3.1874
X6.1083Y-3.2874
X6.1217Y-3.8079
X6.1217Y-3.9079
X6.1217Y-4.0079
X6.1217Y-4.1079
X6.1217Y-4.2079
X6.1217Y-4.3079
X6.163Y-5.2559
X6.1661Y-4.9874
X6.1661Y-5.0874
X6.1898Y-4.6437
X6.2083Y-3.1874
X6.2083Y-3.2874
X6.2661Y-4.9874
X6.2661Y-5.0874
X6.2898Y-4.6437
X6.3028Y-3.8079
X6.3028Y-3.9079
X6.3028Y-4.0079
X6.3028Y-4.1079
X6.3028Y-4.2079
X6.3028Y-4.3079
X6.3083Y-3.1874
X6.3083Y-3.2874
X6.3661Y-4.9874
X6.3661Y-5.0874
X6.3748Y-4.8228
X6.4083Y-3.1874
X6.4083Y-3.2874
X6.4661Y-4.9874
X6.4661Y-5.0874
X6.4748Y-4.8228
X6.4839Y-3.8079
X6.4839Y-3.9079
X6.4839Y-4.0079
X6.4839Y-4.1079
X6.4839Y-4.2079
X6.4839Y-4.3079
X6.5083Y-3.1874
X6.5083Y-3.2874
X6.5661Y-4.9874
X6.5661Y-5.0874
X6.5748Y-4.8228
X6.6661Y-3.1874
X6.6661Y-3.2874
X6.6661Y-4.9874
X6.6661Y-5.0874
X6.6748Y-4.8228
X6.7661Y-3.1874
X6.7661Y-3.2874
X6.8642Y-3.5358
X6.8661Y-3.1874
X6.8661Y-3.2874
X6.8661Y-4.9882
X6.8661Y-5.0882
X6.8746Y-4.6425
X6.877Y-4.8219
X6.9642Y-3.5358
X6.9661Y-3.1874
X6.9661Y-3.2874
X6.9661Y-4.9882
X6.9661Y-5.0882
X6.9746Y-4.6425
X6.977Y-4.8219
X7.0642Y-3.5358
X7.0661Y-3.1874
X7.0661Y-3.2874
X7.0661Y-4.9882
X7.0661Y-5.0882
X7.0746Y-4.6425
X7.077Y-4.8219
X7.1642Y-3.5358
X7.1661Y-3.1874
X7.1661Y-3.2874
X7.1661Y-4.9882
X7.1661Y-5.0882
X7.1746Y-4.6425
X7.177Y-4.8219
X7.2642Y-3.5358
X7.2661Y-3.1874
X7.2661Y-3.2874
X7.2661Y-4.9882
X7.2661Y-5.0882
X7.2746Y-4.6425
X7.277Y-4.8219
X7.3642Y-3.5358
X7.3661Y-3.1874
X7.3661Y-3.2874
X7.3661Y-4.9882
X7.3661Y-5.0882
X7.3746Y-4.6425
X7.377Y-4.8219
X7.4642Y-3.5358
X7.4746Y-4.6425
X7.5642Y-3.5358
X7.5746Y-4.6425
X7.6642Y-3.5358
X7.6746Y-4.6425
X7.7642Y-3.5358
X7.7746Y-4.6425
X7.8642Y-3.5358
X7.8746Y-4.6425
X7.9642Y-3.5358
X7.9746Y-4.6425
X8.0642Y-3.5358
X8.0746Y-4.6425
X8.1642Y-3.5358
X8.1746Y-4.6425
X8.2642Y-3.5358
X8.2746Y-4.6425
X8.9173Y-2.4953
X8.9173Y-2.5953
X8.9173Y-2.6953
X8.9173Y-2.7953
X8.9173Y-3.078
X8.9173Y-3.178
X8.9173Y-3.278
X8.9173Y-3.378
X8.9173Y-3.6606
X8.9173Y-3.7606
X8.9173Y-3.8606
X8.9173Y-3.9606
X8.9173Y-4.2433
X8.9173Y-4.3433
X8.9173Y-4.4433
X8.9173Y-4.5433
X8.9173Y-4.826
X8.9173Y-4.926
X8.9173Y-5.026
X8.9173Y-5.126
X8.9173Y-5.4087
X8.9173Y-5.5087
X8.9173Y-5.6087
X8.9173Y-5.7087
T0
M30
