%TF.GenerationSoftware,KiCad,Pcbnew,(6.0.9)*%
%TF.CreationDate,2022-12-28T12:51:09+01:00*%
%TF.ProjectId,Driver,44726976-6572-42e6-9b69-6361645f7063,0.1*%
%TF.SameCoordinates,Original*%
%TF.FileFunction,Legend,Top*%
%TF.FilePolarity,Positive*%
%FSLAX46Y46*%
G04 Gerber Fmt 4.6, Leading zero omitted, Abs format (unit mm)*
G04 Created by KiCad (PCBNEW (6.0.9)) date 2022-12-28 12:51:09*
%MOMM*%
%LPD*%
G01*
G04 APERTURE LIST*
%ADD10C,0.150000*%
%ADD11C,0.120000*%
G04 APERTURE END LIST*
D10*
X223928571Y-142833333D02*
X223928571Y-143166666D01*
X224452380Y-143166666D02*
X223452380Y-143166666D01*
X223452380Y-142690476D01*
X224452380Y-141738095D02*
X223976190Y-142071428D01*
X224452380Y-142309523D02*
X223452380Y-142309523D01*
X223452380Y-141928571D01*
X223500000Y-141833333D01*
X223547619Y-141785714D01*
X223642857Y-141738095D01*
X223785714Y-141738095D01*
X223880952Y-141785714D01*
X223928571Y-141833333D01*
X223976190Y-141928571D01*
X223976190Y-142309523D01*
X223928571Y-141309523D02*
X223928571Y-140976190D01*
X224452380Y-140833333D02*
X224452380Y-141309523D01*
X223452380Y-141309523D01*
X223452380Y-140833333D01*
X224452380Y-140404761D02*
X223452380Y-140404761D01*
X224452380Y-139833333D01*
X223452380Y-139833333D01*
X224357142Y-138785714D02*
X224404761Y-138833333D01*
X224452380Y-138976190D01*
X224452380Y-139071428D01*
X224404761Y-139214285D01*
X224309523Y-139309523D01*
X224214285Y-139357142D01*
X224023809Y-139404761D01*
X223880952Y-139404761D01*
X223690476Y-139357142D01*
X223595238Y-139309523D01*
X223500000Y-139214285D01*
X223452380Y-139071428D01*
X223452380Y-138976190D01*
X223500000Y-138833333D01*
X223547619Y-138785714D01*
X224452380Y-128809523D02*
X223452380Y-128809523D01*
X224166666Y-128476190D01*
X223452380Y-128142857D01*
X224452380Y-128142857D01*
X224452380Y-127095238D02*
X223976190Y-127428571D01*
X224452380Y-127666666D02*
X223452380Y-127666666D01*
X223452380Y-127285714D01*
X223500000Y-127190476D01*
X223547619Y-127142857D01*
X223642857Y-127095238D01*
X223785714Y-127095238D01*
X223880952Y-127142857D01*
X223928571Y-127190476D01*
X223976190Y-127285714D01*
X223976190Y-127666666D01*
X223928571Y-126666666D02*
X223928571Y-126333333D01*
X224452380Y-126190476D02*
X224452380Y-126666666D01*
X223452380Y-126666666D01*
X223452380Y-126190476D01*
X224452380Y-125761904D02*
X223452380Y-125761904D01*
X224452380Y-125190476D01*
X223452380Y-125190476D01*
X224357142Y-124142857D02*
X224404761Y-124190476D01*
X224452380Y-124333333D01*
X224452380Y-124428571D01*
X224404761Y-124571428D01*
X224309523Y-124666666D01*
X224214285Y-124714285D01*
X224023809Y-124761904D01*
X223880952Y-124761904D01*
X223690476Y-124714285D01*
X223595238Y-124666666D01*
X223500000Y-124571428D01*
X223452380Y-124428571D01*
X223452380Y-124333333D01*
X223500000Y-124190476D01*
X223547619Y-124142857D01*
X224452380Y-113166666D02*
X223976190Y-113500000D01*
X224452380Y-113738095D02*
X223452380Y-113738095D01*
X223452380Y-113357142D01*
X223500000Y-113261904D01*
X223547619Y-113214285D01*
X223642857Y-113166666D01*
X223785714Y-113166666D01*
X223880952Y-113214285D01*
X223928571Y-113261904D01*
X223976190Y-113357142D01*
X223976190Y-113738095D01*
X224452380Y-112166666D02*
X223976190Y-112500000D01*
X224452380Y-112738095D02*
X223452380Y-112738095D01*
X223452380Y-112357142D01*
X223500000Y-112261904D01*
X223547619Y-112214285D01*
X223642857Y-112166666D01*
X223785714Y-112166666D01*
X223880952Y-112214285D01*
X223928571Y-112261904D01*
X223976190Y-112357142D01*
X223976190Y-112738095D01*
X223928571Y-111738095D02*
X223928571Y-111404761D01*
X224452380Y-111261904D02*
X224452380Y-111738095D01*
X223452380Y-111738095D01*
X223452380Y-111261904D01*
X224452380Y-110833333D02*
X223452380Y-110833333D01*
X224452380Y-110261904D01*
X223452380Y-110261904D01*
X224357142Y-109214285D02*
X224404761Y-109261904D01*
X224452380Y-109404761D01*
X224452380Y-109500000D01*
X224404761Y-109642857D01*
X224309523Y-109738095D01*
X224214285Y-109785714D01*
X224023809Y-109833333D01*
X223880952Y-109833333D01*
X223690476Y-109785714D01*
X223595238Y-109738095D01*
X223500000Y-109642857D01*
X223452380Y-109500000D01*
X223452380Y-109404761D01*
X223500000Y-109261904D01*
X223547619Y-109214285D01*
X224452380Y-98071428D02*
X223976190Y-98404761D01*
X224452380Y-98642857D02*
X223452380Y-98642857D01*
X223452380Y-98261904D01*
X223500000Y-98166666D01*
X223547619Y-98119047D01*
X223642857Y-98071428D01*
X223785714Y-98071428D01*
X223880952Y-98119047D01*
X223928571Y-98166666D01*
X223976190Y-98261904D01*
X223976190Y-98642857D01*
X224452380Y-97166666D02*
X224452380Y-97642857D01*
X223452380Y-97642857D01*
X223928571Y-96833333D02*
X223928571Y-96500000D01*
X224452380Y-96357142D02*
X224452380Y-96833333D01*
X223452380Y-96833333D01*
X223452380Y-96357142D01*
X224452380Y-95928571D02*
X223452380Y-95928571D01*
X224452380Y-95357142D01*
X223452380Y-95357142D01*
X224357142Y-94309523D02*
X224404761Y-94357142D01*
X224452380Y-94500000D01*
X224452380Y-94595238D01*
X224404761Y-94738095D01*
X224309523Y-94833333D01*
X224214285Y-94880952D01*
X224023809Y-94928571D01*
X223880952Y-94928571D01*
X223690476Y-94880952D01*
X223595238Y-94833333D01*
X223500000Y-94738095D01*
X223452380Y-94595238D01*
X223452380Y-94500000D01*
X223500000Y-94357142D01*
X223547619Y-94309523D01*
X224452380Y-83714285D02*
X223452380Y-83714285D01*
X224166666Y-83380952D01*
X223452380Y-83047619D01*
X224452380Y-83047619D01*
X224452380Y-82095238D02*
X224452380Y-82571428D01*
X223452380Y-82571428D01*
X223928571Y-81761904D02*
X223928571Y-81428571D01*
X224452380Y-81285714D02*
X224452380Y-81761904D01*
X223452380Y-81761904D01*
X223452380Y-81285714D01*
X224452380Y-80857142D02*
X223452380Y-80857142D01*
X224452380Y-80285714D01*
X223452380Y-80285714D01*
X224357142Y-79238095D02*
X224404761Y-79285714D01*
X224452380Y-79428571D01*
X224452380Y-79523809D01*
X224404761Y-79666666D01*
X224309523Y-79761904D01*
X224214285Y-79809523D01*
X224023809Y-79857142D01*
X223880952Y-79857142D01*
X223690476Y-79809523D01*
X223595238Y-79761904D01*
X223500000Y-79666666D01*
X223452380Y-79523809D01*
X223452380Y-79428571D01*
X223500000Y-79285714D01*
X223547619Y-79238095D01*
X223928571Y-69238095D02*
X223928571Y-69571428D01*
X224452380Y-69571428D02*
X223452380Y-69571428D01*
X223452380Y-69095238D01*
X224452380Y-68238095D02*
X224452380Y-68714285D01*
X223452380Y-68714285D01*
X223928571Y-67904761D02*
X223928571Y-67571428D01*
X224452380Y-67428571D02*
X224452380Y-67904761D01*
X223452380Y-67904761D01*
X223452380Y-67428571D01*
X224452380Y-67000000D02*
X223452380Y-67000000D01*
X224452380Y-66428571D01*
X223452380Y-66428571D01*
X224357142Y-65380952D02*
X224404761Y-65428571D01*
X224452380Y-65571428D01*
X224452380Y-65666666D01*
X224404761Y-65809523D01*
X224309523Y-65904761D01*
X224214285Y-65952380D01*
X224023809Y-66000000D01*
X223880952Y-66000000D01*
X223690476Y-65952380D01*
X223595238Y-65904761D01*
X223500000Y-65809523D01*
X223452380Y-65666666D01*
X223452380Y-65571428D01*
X223500000Y-65428571D01*
X223547619Y-65380952D01*
X158761904Y-133666666D02*
X159238095Y-133666666D01*
X158666666Y-133952380D02*
X159000000Y-132952380D01*
X159333333Y-133952380D01*
X159666666Y-132952380D02*
X159666666Y-133761904D01*
X159714285Y-133857142D01*
X159761904Y-133904761D01*
X159857142Y-133952380D01*
X160047619Y-133952380D01*
X160142857Y-133904761D01*
X160190476Y-133857142D01*
X160238095Y-133761904D01*
X160238095Y-132952380D01*
X160619047Y-132952380D02*
X161285714Y-133952380D01*
X161285714Y-132952380D02*
X160619047Y-133952380D01*
X190761904Y-122666666D02*
X191238095Y-122666666D01*
X190666666Y-122952380D02*
X191000000Y-121952380D01*
X191333333Y-122952380D01*
X191666666Y-121952380D02*
X191666666Y-122761904D01*
X191714285Y-122857142D01*
X191761904Y-122904761D01*
X191857142Y-122952380D01*
X192047619Y-122952380D01*
X192142857Y-122904761D01*
X192190476Y-122857142D01*
X192238095Y-122761904D01*
X192238095Y-121952380D01*
X192619047Y-121952380D02*
X193285714Y-122952380D01*
X193285714Y-121952380D02*
X192619047Y-122952380D01*
D11*
X156500000Y-120500000D02*
X196000000Y-120500000D01*
X196000000Y-120500000D02*
X196000000Y-124500000D01*
X196000000Y-124500000D02*
X156500000Y-124500000D01*
X156500000Y-124500000D02*
X156500000Y-120500000D01*
D10*
X155732380Y-94190476D02*
X155732380Y-93571428D01*
X156113333Y-93904761D01*
X156113333Y-93761904D01*
X156160952Y-93666666D01*
X156208571Y-93619047D01*
X156303809Y-93571428D01*
X156541904Y-93571428D01*
X156637142Y-93619047D01*
X156684761Y-93666666D01*
X156732380Y-93761904D01*
X156732380Y-94047619D01*
X156684761Y-94142857D01*
X156637142Y-94190476D01*
X156065714Y-93238095D02*
X156732380Y-93000000D01*
X156065714Y-92761904D01*
X155732380Y-92476190D02*
X155732380Y-91857142D01*
X156113333Y-92190476D01*
X156113333Y-92047619D01*
X156160952Y-91952380D01*
X156208571Y-91904761D01*
X156303809Y-91857142D01*
X156541904Y-91857142D01*
X156637142Y-91904761D01*
X156684761Y-91952380D01*
X156732380Y-92047619D01*
X156732380Y-92333333D01*
X156684761Y-92428571D01*
X156637142Y-92476190D01*
X159000000Y-93761904D02*
X158952380Y-93857142D01*
X158952380Y-94000000D01*
X159000000Y-94142857D01*
X159095238Y-94238095D01*
X159190476Y-94285714D01*
X159380952Y-94333333D01*
X159523809Y-94333333D01*
X159714285Y-94285714D01*
X159809523Y-94238095D01*
X159904761Y-94142857D01*
X159952380Y-94000000D01*
X159952380Y-93904761D01*
X159904761Y-93761904D01*
X159857142Y-93714285D01*
X159523809Y-93714285D01*
X159523809Y-93904761D01*
X159952380Y-93285714D02*
X158952380Y-93285714D01*
X159952380Y-92714285D01*
X158952380Y-92714285D01*
X159952380Y-92238095D02*
X158952380Y-92238095D01*
X158952380Y-92000000D01*
X159000000Y-91857142D01*
X159095238Y-91761904D01*
X159190476Y-91714285D01*
X159380952Y-91666666D01*
X159523809Y-91666666D01*
X159714285Y-91714285D01*
X159809523Y-91761904D01*
X159904761Y-91857142D01*
X159952380Y-92000000D01*
X159952380Y-92238095D01*
X162172380Y-93190476D02*
X162172380Y-93666666D01*
X162648571Y-93714285D01*
X162600952Y-93666666D01*
X162553333Y-93571428D01*
X162553333Y-93333333D01*
X162600952Y-93238095D01*
X162648571Y-93190476D01*
X162743809Y-93142857D01*
X162981904Y-93142857D01*
X163077142Y-93190476D01*
X163124761Y-93238095D01*
X163172380Y-93333333D01*
X163172380Y-93571428D01*
X163124761Y-93666666D01*
X163077142Y-93714285D01*
X162172380Y-92857142D02*
X163172380Y-92523809D01*
X162172380Y-92190476D01*
X153761904Y-91166666D02*
X154238095Y-91166666D01*
X153666666Y-91452380D02*
X154000000Y-90452380D01*
X154333333Y-91452380D01*
X154666666Y-90452380D02*
X154666666Y-91261904D01*
X154714285Y-91357142D01*
X154761904Y-91404761D01*
X154857142Y-91452380D01*
X155047619Y-91452380D01*
X155142857Y-91404761D01*
X155190476Y-91357142D01*
X155238095Y-91261904D01*
X155238095Y-90452380D01*
X155619047Y-90452380D02*
X156285714Y-91452380D01*
X156285714Y-90452380D02*
X155619047Y-91452380D01*
D11*
X153000000Y-113000000D02*
X167000000Y-113000000D01*
X167000000Y-113000000D02*
X167000000Y-90000000D01*
X167000000Y-90000000D02*
X153000000Y-90000000D01*
X153000000Y-90000000D02*
X153000000Y-113000000D01*
D10*
%TO.C,C20*%
X119607142Y-84382857D02*
X119654761Y-84430476D01*
X119702380Y-84573333D01*
X119702380Y-84668571D01*
X119654761Y-84811428D01*
X119559523Y-84906666D01*
X119464285Y-84954285D01*
X119273809Y-85001904D01*
X119130952Y-85001904D01*
X118940476Y-84954285D01*
X118845238Y-84906666D01*
X118750000Y-84811428D01*
X118702380Y-84668571D01*
X118702380Y-84573333D01*
X118750000Y-84430476D01*
X118797619Y-84382857D01*
X118797619Y-84001904D02*
X118750000Y-83954285D01*
X118702380Y-83859047D01*
X118702380Y-83620952D01*
X118750000Y-83525714D01*
X118797619Y-83478095D01*
X118892857Y-83430476D01*
X118988095Y-83430476D01*
X119130952Y-83478095D01*
X119702380Y-84049523D01*
X119702380Y-83430476D01*
X118702380Y-82811428D02*
X118702380Y-82716190D01*
X118750000Y-82620952D01*
X118797619Y-82573333D01*
X118892857Y-82525714D01*
X119083333Y-82478095D01*
X119321428Y-82478095D01*
X119511904Y-82525714D01*
X119607142Y-82573333D01*
X119654761Y-82620952D01*
X119702380Y-82716190D01*
X119702380Y-82811428D01*
X119654761Y-82906666D01*
X119607142Y-82954285D01*
X119511904Y-83001904D01*
X119321428Y-83049523D01*
X119083333Y-83049523D01*
X118892857Y-83001904D01*
X118797619Y-82954285D01*
X118750000Y-82906666D01*
X118702380Y-82811428D01*
%TO.C,C19*%
X119607142Y-74642857D02*
X119654761Y-74690476D01*
X119702380Y-74833333D01*
X119702380Y-74928571D01*
X119654761Y-75071428D01*
X119559523Y-75166666D01*
X119464285Y-75214285D01*
X119273809Y-75261904D01*
X119130952Y-75261904D01*
X118940476Y-75214285D01*
X118845238Y-75166666D01*
X118750000Y-75071428D01*
X118702380Y-74928571D01*
X118702380Y-74833333D01*
X118750000Y-74690476D01*
X118797619Y-74642857D01*
X119702380Y-73690476D02*
X119702380Y-74261904D01*
X119702380Y-73976190D02*
X118702380Y-73976190D01*
X118845238Y-74071428D01*
X118940476Y-74166666D01*
X118988095Y-74261904D01*
X119702380Y-73214285D02*
X119702380Y-73023809D01*
X119654761Y-72928571D01*
X119607142Y-72880952D01*
X119464285Y-72785714D01*
X119273809Y-72738095D01*
X118892857Y-72738095D01*
X118797619Y-72785714D01*
X118750000Y-72833333D01*
X118702380Y-72928571D01*
X118702380Y-73119047D01*
X118750000Y-73214285D01*
X118797619Y-73261904D01*
X118892857Y-73309523D01*
X119130952Y-73309523D01*
X119226190Y-73261904D01*
X119273809Y-73214285D01*
X119321428Y-73119047D01*
X119321428Y-72928571D01*
X119273809Y-72833333D01*
X119226190Y-72785714D01*
X119130952Y-72738095D01*
%TO.C,H4*%
X220238095Y-56452380D02*
X220238095Y-55452380D01*
X220238095Y-55928571D02*
X220809523Y-55928571D01*
X220809523Y-56452380D02*
X220809523Y-55452380D01*
X221714285Y-55785714D02*
X221714285Y-56452380D01*
X221476190Y-55404761D02*
X221238095Y-56119047D01*
X221857142Y-56119047D01*
%TO.C,H3*%
X124238095Y-56452380D02*
X124238095Y-55452380D01*
X124238095Y-55928571D02*
X124809523Y-55928571D01*
X124809523Y-56452380D02*
X124809523Y-55452380D01*
X125190476Y-55452380D02*
X125809523Y-55452380D01*
X125476190Y-55833333D01*
X125619047Y-55833333D01*
X125714285Y-55880952D01*
X125761904Y-55928571D01*
X125809523Y-56023809D01*
X125809523Y-56261904D01*
X125761904Y-56357142D01*
X125714285Y-56404761D01*
X125619047Y-56452380D01*
X125333333Y-56452380D01*
X125238095Y-56404761D01*
X125190476Y-56357142D01*
%TO.C,H2*%
X124238095Y-153452380D02*
X124238095Y-152452380D01*
X124238095Y-152928571D02*
X124809523Y-152928571D01*
X124809523Y-153452380D02*
X124809523Y-152452380D01*
X125238095Y-152547619D02*
X125285714Y-152500000D01*
X125380952Y-152452380D01*
X125619047Y-152452380D01*
X125714285Y-152500000D01*
X125761904Y-152547619D01*
X125809523Y-152642857D01*
X125809523Y-152738095D01*
X125761904Y-152880952D01*
X125190476Y-153452380D01*
X125809523Y-153452380D01*
%TO.C,H1*%
X219738095Y-153452380D02*
X219738095Y-152452380D01*
X219738095Y-152928571D02*
X220309523Y-152928571D01*
X220309523Y-153452380D02*
X220309523Y-152452380D01*
X221309523Y-153452380D02*
X220738095Y-153452380D01*
X221023809Y-153452380D02*
X221023809Y-152452380D01*
X220928571Y-152595238D01*
X220833333Y-152690476D01*
X220738095Y-152738095D01*
%TO.C,C18*%
X136727142Y-82337142D02*
X136679523Y-82384761D01*
X136536666Y-82432380D01*
X136441428Y-82432380D01*
X136298571Y-82384761D01*
X136203333Y-82289523D01*
X136155714Y-82194285D01*
X136108095Y-82003809D01*
X136108095Y-81860952D01*
X136155714Y-81670476D01*
X136203333Y-81575238D01*
X136298571Y-81480000D01*
X136441428Y-81432380D01*
X136536666Y-81432380D01*
X136679523Y-81480000D01*
X136727142Y-81527619D01*
X137679523Y-82432380D02*
X137108095Y-82432380D01*
X137393809Y-82432380D02*
X137393809Y-81432380D01*
X137298571Y-81575238D01*
X137203333Y-81670476D01*
X137108095Y-81718095D01*
X138250952Y-81860952D02*
X138155714Y-81813333D01*
X138108095Y-81765714D01*
X138060476Y-81670476D01*
X138060476Y-81622857D01*
X138108095Y-81527619D01*
X138155714Y-81480000D01*
X138250952Y-81432380D01*
X138441428Y-81432380D01*
X138536666Y-81480000D01*
X138584285Y-81527619D01*
X138631904Y-81622857D01*
X138631904Y-81670476D01*
X138584285Y-81765714D01*
X138536666Y-81813333D01*
X138441428Y-81860952D01*
X138250952Y-81860952D01*
X138155714Y-81908571D01*
X138108095Y-81956190D01*
X138060476Y-82051428D01*
X138060476Y-82241904D01*
X138108095Y-82337142D01*
X138155714Y-82384761D01*
X138250952Y-82432380D01*
X138441428Y-82432380D01*
X138536666Y-82384761D01*
X138584285Y-82337142D01*
X138631904Y-82241904D01*
X138631904Y-82051428D01*
X138584285Y-81956190D01*
X138536666Y-81908571D01*
X138441428Y-81860952D01*
%TO.C,C17*%
X150317142Y-74072857D02*
X150364761Y-74120476D01*
X150412380Y-74263333D01*
X150412380Y-74358571D01*
X150364761Y-74501428D01*
X150269523Y-74596666D01*
X150174285Y-74644285D01*
X149983809Y-74691904D01*
X149840952Y-74691904D01*
X149650476Y-74644285D01*
X149555238Y-74596666D01*
X149460000Y-74501428D01*
X149412380Y-74358571D01*
X149412380Y-74263333D01*
X149460000Y-74120476D01*
X149507619Y-74072857D01*
X150412380Y-73120476D02*
X150412380Y-73691904D01*
X150412380Y-73406190D02*
X149412380Y-73406190D01*
X149555238Y-73501428D01*
X149650476Y-73596666D01*
X149698095Y-73691904D01*
X149412380Y-72787142D02*
X149412380Y-72120476D01*
X150412380Y-72549047D01*
%TO.C,C16*%
X221037142Y-134142857D02*
X221084761Y-134190476D01*
X221132380Y-134333333D01*
X221132380Y-134428571D01*
X221084761Y-134571428D01*
X220989523Y-134666666D01*
X220894285Y-134714285D01*
X220703809Y-134761904D01*
X220560952Y-134761904D01*
X220370476Y-134714285D01*
X220275238Y-134666666D01*
X220180000Y-134571428D01*
X220132380Y-134428571D01*
X220132380Y-134333333D01*
X220180000Y-134190476D01*
X220227619Y-134142857D01*
X221132380Y-133190476D02*
X221132380Y-133761904D01*
X221132380Y-133476190D02*
X220132380Y-133476190D01*
X220275238Y-133571428D01*
X220370476Y-133666666D01*
X220418095Y-133761904D01*
X220132380Y-132333333D02*
X220132380Y-132523809D01*
X220180000Y-132619047D01*
X220227619Y-132666666D01*
X220370476Y-132761904D01*
X220560952Y-132809523D01*
X220941904Y-132809523D01*
X221037142Y-132761904D01*
X221084761Y-132714285D01*
X221132380Y-132619047D01*
X221132380Y-132428571D01*
X221084761Y-132333333D01*
X221037142Y-132285714D01*
X220941904Y-132238095D01*
X220703809Y-132238095D01*
X220608571Y-132285714D01*
X220560952Y-132333333D01*
X220513333Y-132428571D01*
X220513333Y-132619047D01*
X220560952Y-132714285D01*
X220608571Y-132761904D01*
X220703809Y-132809523D01*
%TO.C,C15*%
X125557142Y-114137142D02*
X125509523Y-114184761D01*
X125366666Y-114232380D01*
X125271428Y-114232380D01*
X125128571Y-114184761D01*
X125033333Y-114089523D01*
X124985714Y-113994285D01*
X124938095Y-113803809D01*
X124938095Y-113660952D01*
X124985714Y-113470476D01*
X125033333Y-113375238D01*
X125128571Y-113280000D01*
X125271428Y-113232380D01*
X125366666Y-113232380D01*
X125509523Y-113280000D01*
X125557142Y-113327619D01*
X126509523Y-114232380D02*
X125938095Y-114232380D01*
X126223809Y-114232380D02*
X126223809Y-113232380D01*
X126128571Y-113375238D01*
X126033333Y-113470476D01*
X125938095Y-113518095D01*
X127414285Y-113232380D02*
X126938095Y-113232380D01*
X126890476Y-113708571D01*
X126938095Y-113660952D01*
X127033333Y-113613333D01*
X127271428Y-113613333D01*
X127366666Y-113660952D01*
X127414285Y-113708571D01*
X127461904Y-113803809D01*
X127461904Y-114041904D01*
X127414285Y-114137142D01*
X127366666Y-114184761D01*
X127271428Y-114232380D01*
X127033333Y-114232380D01*
X126938095Y-114184761D01*
X126890476Y-114137142D01*
%TO.C,C14*%
X129247142Y-97102857D02*
X129294761Y-97150476D01*
X129342380Y-97293333D01*
X129342380Y-97388571D01*
X129294761Y-97531428D01*
X129199523Y-97626666D01*
X129104285Y-97674285D01*
X128913809Y-97721904D01*
X128770952Y-97721904D01*
X128580476Y-97674285D01*
X128485238Y-97626666D01*
X128390000Y-97531428D01*
X128342380Y-97388571D01*
X128342380Y-97293333D01*
X128390000Y-97150476D01*
X128437619Y-97102857D01*
X129342380Y-96150476D02*
X129342380Y-96721904D01*
X129342380Y-96436190D02*
X128342380Y-96436190D01*
X128485238Y-96531428D01*
X128580476Y-96626666D01*
X128628095Y-96721904D01*
X128675714Y-95293333D02*
X129342380Y-95293333D01*
X128294761Y-95531428D02*
X129009047Y-95769523D01*
X129009047Y-95150476D01*
%TO.C,C13*%
X138197142Y-114812857D02*
X138244761Y-114860476D01*
X138292380Y-115003333D01*
X138292380Y-115098571D01*
X138244761Y-115241428D01*
X138149523Y-115336666D01*
X138054285Y-115384285D01*
X137863809Y-115431904D01*
X137720952Y-115431904D01*
X137530476Y-115384285D01*
X137435238Y-115336666D01*
X137340000Y-115241428D01*
X137292380Y-115098571D01*
X137292380Y-115003333D01*
X137340000Y-114860476D01*
X137387619Y-114812857D01*
X138292380Y-113860476D02*
X138292380Y-114431904D01*
X138292380Y-114146190D02*
X137292380Y-114146190D01*
X137435238Y-114241428D01*
X137530476Y-114336666D01*
X137578095Y-114431904D01*
X137292380Y-113527142D02*
X137292380Y-112908095D01*
X137673333Y-113241428D01*
X137673333Y-113098571D01*
X137720952Y-113003333D01*
X137768571Y-112955714D01*
X137863809Y-112908095D01*
X138101904Y-112908095D01*
X138197142Y-112955714D01*
X138244761Y-113003333D01*
X138292380Y-113098571D01*
X138292380Y-113384285D01*
X138244761Y-113479523D01*
X138197142Y-113527142D01*
%TO.C,C12*%
X147567142Y-112952857D02*
X147614761Y-113000476D01*
X147662380Y-113143333D01*
X147662380Y-113238571D01*
X147614761Y-113381428D01*
X147519523Y-113476666D01*
X147424285Y-113524285D01*
X147233809Y-113571904D01*
X147090952Y-113571904D01*
X146900476Y-113524285D01*
X146805238Y-113476666D01*
X146710000Y-113381428D01*
X146662380Y-113238571D01*
X146662380Y-113143333D01*
X146710000Y-113000476D01*
X146757619Y-112952857D01*
X147662380Y-112000476D02*
X147662380Y-112571904D01*
X147662380Y-112286190D02*
X146662380Y-112286190D01*
X146805238Y-112381428D01*
X146900476Y-112476666D01*
X146948095Y-112571904D01*
X146757619Y-111619523D02*
X146710000Y-111571904D01*
X146662380Y-111476666D01*
X146662380Y-111238571D01*
X146710000Y-111143333D01*
X146757619Y-111095714D01*
X146852857Y-111048095D01*
X146948095Y-111048095D01*
X147090952Y-111095714D01*
X147662380Y-111667142D01*
X147662380Y-111048095D01*
%TO.C,C11*%
X147427142Y-97022857D02*
X147474761Y-97070476D01*
X147522380Y-97213333D01*
X147522380Y-97308571D01*
X147474761Y-97451428D01*
X147379523Y-97546666D01*
X147284285Y-97594285D01*
X147093809Y-97641904D01*
X146950952Y-97641904D01*
X146760476Y-97594285D01*
X146665238Y-97546666D01*
X146570000Y-97451428D01*
X146522380Y-97308571D01*
X146522380Y-97213333D01*
X146570000Y-97070476D01*
X146617619Y-97022857D01*
X147522380Y-96070476D02*
X147522380Y-96641904D01*
X147522380Y-96356190D02*
X146522380Y-96356190D01*
X146665238Y-96451428D01*
X146760476Y-96546666D01*
X146808095Y-96641904D01*
X147522380Y-95118095D02*
X147522380Y-95689523D01*
X147522380Y-95403809D02*
X146522380Y-95403809D01*
X146665238Y-95499047D01*
X146760476Y-95594285D01*
X146808095Y-95689523D01*
%TO.C,C10*%
X179437142Y-112752857D02*
X179484761Y-112800476D01*
X179532380Y-112943333D01*
X179532380Y-113038571D01*
X179484761Y-113181428D01*
X179389523Y-113276666D01*
X179294285Y-113324285D01*
X179103809Y-113371904D01*
X178960952Y-113371904D01*
X178770476Y-113324285D01*
X178675238Y-113276666D01*
X178580000Y-113181428D01*
X178532380Y-113038571D01*
X178532380Y-112943333D01*
X178580000Y-112800476D01*
X178627619Y-112752857D01*
X179532380Y-111800476D02*
X179532380Y-112371904D01*
X179532380Y-112086190D02*
X178532380Y-112086190D01*
X178675238Y-112181428D01*
X178770476Y-112276666D01*
X178818095Y-112371904D01*
X178532380Y-111181428D02*
X178532380Y-111086190D01*
X178580000Y-110990952D01*
X178627619Y-110943333D01*
X178722857Y-110895714D01*
X178913333Y-110848095D01*
X179151428Y-110848095D01*
X179341904Y-110895714D01*
X179437142Y-110943333D01*
X179484761Y-110990952D01*
X179532380Y-111086190D01*
X179532380Y-111181428D01*
X179484761Y-111276666D01*
X179437142Y-111324285D01*
X179341904Y-111371904D01*
X179151428Y-111419523D01*
X178913333Y-111419523D01*
X178722857Y-111371904D01*
X178627619Y-111324285D01*
X178580000Y-111276666D01*
X178532380Y-111181428D01*
%TO.C,C9*%
X179367142Y-96166666D02*
X179414761Y-96214285D01*
X179462380Y-96357142D01*
X179462380Y-96452380D01*
X179414761Y-96595238D01*
X179319523Y-96690476D01*
X179224285Y-96738095D01*
X179033809Y-96785714D01*
X178890952Y-96785714D01*
X178700476Y-96738095D01*
X178605238Y-96690476D01*
X178510000Y-96595238D01*
X178462380Y-96452380D01*
X178462380Y-96357142D01*
X178510000Y-96214285D01*
X178557619Y-96166666D01*
X179462380Y-95690476D02*
X179462380Y-95500000D01*
X179414761Y-95404761D01*
X179367142Y-95357142D01*
X179224285Y-95261904D01*
X179033809Y-95214285D01*
X178652857Y-95214285D01*
X178557619Y-95261904D01*
X178510000Y-95309523D01*
X178462380Y-95404761D01*
X178462380Y-95595238D01*
X178510000Y-95690476D01*
X178557619Y-95738095D01*
X178652857Y-95785714D01*
X178890952Y-95785714D01*
X178986190Y-95738095D01*
X179033809Y-95690476D01*
X179081428Y-95595238D01*
X179081428Y-95404761D01*
X179033809Y-95309523D01*
X178986190Y-95261904D01*
X178890952Y-95214285D01*
%TO.C,C8*%
X193173333Y-112937142D02*
X193125714Y-112984761D01*
X192982857Y-113032380D01*
X192887619Y-113032380D01*
X192744761Y-112984761D01*
X192649523Y-112889523D01*
X192601904Y-112794285D01*
X192554285Y-112603809D01*
X192554285Y-112460952D01*
X192601904Y-112270476D01*
X192649523Y-112175238D01*
X192744761Y-112080000D01*
X192887619Y-112032380D01*
X192982857Y-112032380D01*
X193125714Y-112080000D01*
X193173333Y-112127619D01*
X193744761Y-112460952D02*
X193649523Y-112413333D01*
X193601904Y-112365714D01*
X193554285Y-112270476D01*
X193554285Y-112222857D01*
X193601904Y-112127619D01*
X193649523Y-112080000D01*
X193744761Y-112032380D01*
X193935238Y-112032380D01*
X194030476Y-112080000D01*
X194078095Y-112127619D01*
X194125714Y-112222857D01*
X194125714Y-112270476D01*
X194078095Y-112365714D01*
X194030476Y-112413333D01*
X193935238Y-112460952D01*
X193744761Y-112460952D01*
X193649523Y-112508571D01*
X193601904Y-112556190D01*
X193554285Y-112651428D01*
X193554285Y-112841904D01*
X193601904Y-112937142D01*
X193649523Y-112984761D01*
X193744761Y-113032380D01*
X193935238Y-113032380D01*
X194030476Y-112984761D01*
X194078095Y-112937142D01*
X194125714Y-112841904D01*
X194125714Y-112651428D01*
X194078095Y-112556190D01*
X194030476Y-112508571D01*
X193935238Y-112460952D01*
%TO.C,C7*%
X212407142Y-111566666D02*
X212454761Y-111614285D01*
X212502380Y-111757142D01*
X212502380Y-111852380D01*
X212454761Y-111995238D01*
X212359523Y-112090476D01*
X212264285Y-112138095D01*
X212073809Y-112185714D01*
X211930952Y-112185714D01*
X211740476Y-112138095D01*
X211645238Y-112090476D01*
X211550000Y-111995238D01*
X211502380Y-111852380D01*
X211502380Y-111757142D01*
X211550000Y-111614285D01*
X211597619Y-111566666D01*
X211502380Y-111233333D02*
X211502380Y-110566666D01*
X212502380Y-110995238D01*
%TO.C,C6*%
X212267142Y-96336666D02*
X212314761Y-96384285D01*
X212362380Y-96527142D01*
X212362380Y-96622380D01*
X212314761Y-96765238D01*
X212219523Y-96860476D01*
X212124285Y-96908095D01*
X211933809Y-96955714D01*
X211790952Y-96955714D01*
X211600476Y-96908095D01*
X211505238Y-96860476D01*
X211410000Y-96765238D01*
X211362380Y-96622380D01*
X211362380Y-96527142D01*
X211410000Y-96384285D01*
X211457619Y-96336666D01*
X211362380Y-95479523D02*
X211362380Y-95670000D01*
X211410000Y-95765238D01*
X211457619Y-95812857D01*
X211600476Y-95908095D01*
X211790952Y-95955714D01*
X212171904Y-95955714D01*
X212267142Y-95908095D01*
X212314761Y-95860476D01*
X212362380Y-95765238D01*
X212362380Y-95574761D01*
X212314761Y-95479523D01*
X212267142Y-95431904D01*
X212171904Y-95384285D01*
X211933809Y-95384285D01*
X211838571Y-95431904D01*
X211790952Y-95479523D01*
X211743333Y-95574761D01*
X211743333Y-95765238D01*
X211790952Y-95860476D01*
X211838571Y-95908095D01*
X211933809Y-95955714D01*
%TO.C,C5*%
X138264642Y-71036666D02*
X138312261Y-71084285D01*
X138359880Y-71227142D01*
X138359880Y-71322380D01*
X138312261Y-71465238D01*
X138217023Y-71560476D01*
X138121785Y-71608095D01*
X137931309Y-71655714D01*
X137788452Y-71655714D01*
X137597976Y-71608095D01*
X137502738Y-71560476D01*
X137407500Y-71465238D01*
X137359880Y-71322380D01*
X137359880Y-71227142D01*
X137407500Y-71084285D01*
X137455119Y-71036666D01*
X137359880Y-70131904D02*
X137359880Y-70608095D01*
X137836071Y-70655714D01*
X137788452Y-70608095D01*
X137740833Y-70512857D01*
X137740833Y-70274761D01*
X137788452Y-70179523D01*
X137836071Y-70131904D01*
X137931309Y-70084285D01*
X138169404Y-70084285D01*
X138264642Y-70131904D01*
X138312261Y-70179523D01*
X138359880Y-70274761D01*
X138359880Y-70512857D01*
X138312261Y-70608095D01*
X138264642Y-70655714D01*
%TO.C,C4*%
X138444642Y-55346666D02*
X138492261Y-55394285D01*
X138539880Y-55537142D01*
X138539880Y-55632380D01*
X138492261Y-55775238D01*
X138397023Y-55870476D01*
X138301785Y-55918095D01*
X138111309Y-55965714D01*
X137968452Y-55965714D01*
X137777976Y-55918095D01*
X137682738Y-55870476D01*
X137587500Y-55775238D01*
X137539880Y-55632380D01*
X137539880Y-55537142D01*
X137587500Y-55394285D01*
X137635119Y-55346666D01*
X137873214Y-54489523D02*
X138539880Y-54489523D01*
X137492261Y-54727619D02*
X138206547Y-54965714D01*
X138206547Y-54346666D01*
%TO.C,C3*%
X196657142Y-93396666D02*
X196704761Y-93444285D01*
X196752380Y-93587142D01*
X196752380Y-93682380D01*
X196704761Y-93825238D01*
X196609523Y-93920476D01*
X196514285Y-93968095D01*
X196323809Y-94015714D01*
X196180952Y-94015714D01*
X195990476Y-93968095D01*
X195895238Y-93920476D01*
X195800000Y-93825238D01*
X195752380Y-93682380D01*
X195752380Y-93587142D01*
X195800000Y-93444285D01*
X195847619Y-93396666D01*
X195752380Y-93063333D02*
X195752380Y-92444285D01*
X196133333Y-92777619D01*
X196133333Y-92634761D01*
X196180952Y-92539523D01*
X196228571Y-92491904D01*
X196323809Y-92444285D01*
X196561904Y-92444285D01*
X196657142Y-92491904D01*
X196704761Y-92539523D01*
X196752380Y-92634761D01*
X196752380Y-92920476D01*
X196704761Y-93015714D01*
X196657142Y-93063333D01*
%TO.C,C2*%
X154657142Y-70456666D02*
X154704761Y-70504285D01*
X154752380Y-70647142D01*
X154752380Y-70742380D01*
X154704761Y-70885238D01*
X154609523Y-70980476D01*
X154514285Y-71028095D01*
X154323809Y-71075714D01*
X154180952Y-71075714D01*
X153990476Y-71028095D01*
X153895238Y-70980476D01*
X153800000Y-70885238D01*
X153752380Y-70742380D01*
X153752380Y-70647142D01*
X153800000Y-70504285D01*
X153847619Y-70456666D01*
X153847619Y-70075714D02*
X153800000Y-70028095D01*
X153752380Y-69932857D01*
X153752380Y-69694761D01*
X153800000Y-69599523D01*
X153847619Y-69551904D01*
X153942857Y-69504285D01*
X154038095Y-69504285D01*
X154180952Y-69551904D01*
X154752380Y-70123333D01*
X154752380Y-69504285D01*
%TO.C,C1*%
X154234642Y-55196666D02*
X154282261Y-55244285D01*
X154329880Y-55387142D01*
X154329880Y-55482380D01*
X154282261Y-55625238D01*
X154187023Y-55720476D01*
X154091785Y-55768095D01*
X153901309Y-55815714D01*
X153758452Y-55815714D01*
X153567976Y-55768095D01*
X153472738Y-55720476D01*
X153377500Y-55625238D01*
X153329880Y-55482380D01*
X153329880Y-55387142D01*
X153377500Y-55244285D01*
X153425119Y-55196666D01*
X154329880Y-54244285D02*
X154329880Y-54815714D01*
X154329880Y-54530000D02*
X153329880Y-54530000D01*
X153472738Y-54625238D01*
X153567976Y-54720476D01*
X153615595Y-54815714D01*
%TO.C,R12*%
X141142380Y-146362857D02*
X140666190Y-146696190D01*
X141142380Y-146934285D02*
X140142380Y-146934285D01*
X140142380Y-146553333D01*
X140190000Y-146458095D01*
X140237619Y-146410476D01*
X140332857Y-146362857D01*
X140475714Y-146362857D01*
X140570952Y-146410476D01*
X140618571Y-146458095D01*
X140666190Y-146553333D01*
X140666190Y-146934285D01*
X141142380Y-145410476D02*
X141142380Y-145981904D01*
X141142380Y-145696190D02*
X140142380Y-145696190D01*
X140285238Y-145791428D01*
X140380476Y-145886666D01*
X140428095Y-145981904D01*
X140237619Y-145029523D02*
X140190000Y-144981904D01*
X140142380Y-144886666D01*
X140142380Y-144648571D01*
X140190000Y-144553333D01*
X140237619Y-144505714D01*
X140332857Y-144458095D01*
X140428095Y-144458095D01*
X140570952Y-144505714D01*
X141142380Y-145077142D01*
X141142380Y-144458095D01*
%TO.C,R11*%
X133272380Y-145892857D02*
X132796190Y-146226190D01*
X133272380Y-146464285D02*
X132272380Y-146464285D01*
X132272380Y-146083333D01*
X132320000Y-145988095D01*
X132367619Y-145940476D01*
X132462857Y-145892857D01*
X132605714Y-145892857D01*
X132700952Y-145940476D01*
X132748571Y-145988095D01*
X132796190Y-146083333D01*
X132796190Y-146464285D01*
X133272380Y-144940476D02*
X133272380Y-145511904D01*
X133272380Y-145226190D02*
X132272380Y-145226190D01*
X132415238Y-145321428D01*
X132510476Y-145416666D01*
X132558095Y-145511904D01*
X133272380Y-143988095D02*
X133272380Y-144559523D01*
X133272380Y-144273809D02*
X132272380Y-144273809D01*
X132415238Y-144369047D01*
X132510476Y-144464285D01*
X132558095Y-144559523D01*
%TO.C,R10*%
X156612380Y-146022857D02*
X156136190Y-146356190D01*
X156612380Y-146594285D02*
X155612380Y-146594285D01*
X155612380Y-146213333D01*
X155660000Y-146118095D01*
X155707619Y-146070476D01*
X155802857Y-146022857D01*
X155945714Y-146022857D01*
X156040952Y-146070476D01*
X156088571Y-146118095D01*
X156136190Y-146213333D01*
X156136190Y-146594285D01*
X156612380Y-145070476D02*
X156612380Y-145641904D01*
X156612380Y-145356190D02*
X155612380Y-145356190D01*
X155755238Y-145451428D01*
X155850476Y-145546666D01*
X155898095Y-145641904D01*
X155612380Y-144451428D02*
X155612380Y-144356190D01*
X155660000Y-144260952D01*
X155707619Y-144213333D01*
X155802857Y-144165714D01*
X155993333Y-144118095D01*
X156231428Y-144118095D01*
X156421904Y-144165714D01*
X156517142Y-144213333D01*
X156564761Y-144260952D01*
X156612380Y-144356190D01*
X156612380Y-144451428D01*
X156564761Y-144546666D01*
X156517142Y-144594285D01*
X156421904Y-144641904D01*
X156231428Y-144689523D01*
X155993333Y-144689523D01*
X155802857Y-144641904D01*
X155707619Y-144594285D01*
X155660000Y-144546666D01*
X155612380Y-144451428D01*
%TO.C,R9*%
X148725712Y-145416666D02*
X148249522Y-145750000D01*
X148725712Y-145988095D02*
X147725712Y-145988095D01*
X147725712Y-145607142D01*
X147773332Y-145511904D01*
X147820951Y-145464285D01*
X147916189Y-145416666D01*
X148059046Y-145416666D01*
X148154284Y-145464285D01*
X148201903Y-145511904D01*
X148249522Y-145607142D01*
X148249522Y-145988095D01*
X148725712Y-144940476D02*
X148725712Y-144750000D01*
X148678093Y-144654761D01*
X148630474Y-144607142D01*
X148487617Y-144511904D01*
X148297141Y-144464285D01*
X147916189Y-144464285D01*
X147820951Y-144511904D01*
X147773332Y-144559523D01*
X147725712Y-144654761D01*
X147725712Y-144845238D01*
X147773332Y-144940476D01*
X147820951Y-144988095D01*
X147916189Y-145035714D01*
X148154284Y-145035714D01*
X148249522Y-144988095D01*
X148297141Y-144940476D01*
X148344760Y-144845238D01*
X148344760Y-144654761D01*
X148297141Y-144559523D01*
X148249522Y-144511904D01*
X148154284Y-144464285D01*
%TO.C,R8*%
X195859046Y-145471666D02*
X195382856Y-145805000D01*
X195859046Y-146043095D02*
X194859046Y-146043095D01*
X194859046Y-145662142D01*
X194906666Y-145566904D01*
X194954285Y-145519285D01*
X195049523Y-145471666D01*
X195192380Y-145471666D01*
X195287618Y-145519285D01*
X195335237Y-145566904D01*
X195382856Y-145662142D01*
X195382856Y-146043095D01*
X195287618Y-144900238D02*
X195239999Y-144995476D01*
X195192380Y-145043095D01*
X195097142Y-145090714D01*
X195049523Y-145090714D01*
X194954285Y-145043095D01*
X194906666Y-144995476D01*
X194859046Y-144900238D01*
X194859046Y-144709761D01*
X194906666Y-144614523D01*
X194954285Y-144566904D01*
X195049523Y-144519285D01*
X195097142Y-144519285D01*
X195192380Y-144566904D01*
X195239999Y-144614523D01*
X195287618Y-144709761D01*
X195287618Y-144900238D01*
X195335237Y-144995476D01*
X195382856Y-145043095D01*
X195478094Y-145090714D01*
X195668570Y-145090714D01*
X195763808Y-145043095D01*
X195811427Y-144995476D01*
X195859046Y-144900238D01*
X195859046Y-144709761D01*
X195811427Y-144614523D01*
X195763808Y-144566904D01*
X195668570Y-144519285D01*
X195478094Y-144519285D01*
X195382856Y-144566904D01*
X195335237Y-144614523D01*
X195287618Y-144709761D01*
%TO.C,R7*%
X188582380Y-145296666D02*
X188106190Y-145630000D01*
X188582380Y-145868095D02*
X187582380Y-145868095D01*
X187582380Y-145487142D01*
X187630000Y-145391904D01*
X187677619Y-145344285D01*
X187772857Y-145296666D01*
X187915714Y-145296666D01*
X188010952Y-145344285D01*
X188058571Y-145391904D01*
X188106190Y-145487142D01*
X188106190Y-145868095D01*
X187582380Y-144963333D02*
X187582380Y-144296666D01*
X188582380Y-144725238D01*
%TO.C,R6*%
X203262380Y-145606666D02*
X202786190Y-145940000D01*
X203262380Y-146178095D02*
X202262380Y-146178095D01*
X202262380Y-145797142D01*
X202310000Y-145701904D01*
X202357619Y-145654285D01*
X202452857Y-145606666D01*
X202595714Y-145606666D01*
X202690952Y-145654285D01*
X202738571Y-145701904D01*
X202786190Y-145797142D01*
X202786190Y-146178095D01*
X202262380Y-144749523D02*
X202262380Y-144940000D01*
X202310000Y-145035238D01*
X202357619Y-145082857D01*
X202500476Y-145178095D01*
X202690952Y-145225714D01*
X203071904Y-145225714D01*
X203167142Y-145178095D01*
X203214761Y-145130476D01*
X203262380Y-145035238D01*
X203262380Y-144844761D01*
X203214761Y-144749523D01*
X203167142Y-144701904D01*
X203071904Y-144654285D01*
X202833809Y-144654285D01*
X202738571Y-144701904D01*
X202690952Y-144749523D01*
X202643333Y-144844761D01*
X202643333Y-145035238D01*
X202690952Y-145130476D01*
X202738571Y-145178095D01*
X202833809Y-145225714D01*
%TO.C,R5*%
X210832380Y-145296666D02*
X210356190Y-145630000D01*
X210832380Y-145868095D02*
X209832380Y-145868095D01*
X209832380Y-145487142D01*
X209880000Y-145391904D01*
X209927619Y-145344285D01*
X210022857Y-145296666D01*
X210165714Y-145296666D01*
X210260952Y-145344285D01*
X210308571Y-145391904D01*
X210356190Y-145487142D01*
X210356190Y-145868095D01*
X209832380Y-144391904D02*
X209832380Y-144868095D01*
X210308571Y-144915714D01*
X210260952Y-144868095D01*
X210213333Y-144772857D01*
X210213333Y-144534761D01*
X210260952Y-144439523D01*
X210308571Y-144391904D01*
X210403809Y-144344285D01*
X210641904Y-144344285D01*
X210737142Y-144391904D01*
X210784761Y-144439523D01*
X210832380Y-144534761D01*
X210832380Y-144772857D01*
X210784761Y-144868095D01*
X210737142Y-144915714D01*
%TO.C,R4*%
X208602380Y-64176666D02*
X208126190Y-64510000D01*
X208602380Y-64748095D02*
X207602380Y-64748095D01*
X207602380Y-64367142D01*
X207650000Y-64271904D01*
X207697619Y-64224285D01*
X207792857Y-64176666D01*
X207935714Y-64176666D01*
X208030952Y-64224285D01*
X208078571Y-64271904D01*
X208126190Y-64367142D01*
X208126190Y-64748095D01*
X207935714Y-63319523D02*
X208602380Y-63319523D01*
X207554761Y-63557619D02*
X208269047Y-63795714D01*
X208269047Y-63176666D01*
%TO.C,R3*%
X201877934Y-63866666D02*
X201401744Y-64200000D01*
X201877934Y-64438095D02*
X200877934Y-64438095D01*
X200877934Y-64057142D01*
X200925554Y-63961904D01*
X200973173Y-63914285D01*
X201068411Y-63866666D01*
X201211268Y-63866666D01*
X201306506Y-63914285D01*
X201354125Y-63961904D01*
X201401744Y-64057142D01*
X201401744Y-64438095D01*
X200877934Y-63533333D02*
X200877934Y-62914285D01*
X201258887Y-63247619D01*
X201258887Y-63104761D01*
X201306506Y-63009523D01*
X201354125Y-62961904D01*
X201449363Y-62914285D01*
X201687458Y-62914285D01*
X201782696Y-62961904D01*
X201830315Y-63009523D01*
X201877934Y-63104761D01*
X201877934Y-63390476D01*
X201830315Y-63485714D01*
X201782696Y-63533333D01*
%TO.C,R2*%
X195112380Y-64366666D02*
X194636190Y-64700000D01*
X195112380Y-64938095D02*
X194112380Y-64938095D01*
X194112380Y-64557142D01*
X194160000Y-64461904D01*
X194207619Y-64414285D01*
X194302857Y-64366666D01*
X194445714Y-64366666D01*
X194540952Y-64414285D01*
X194588571Y-64461904D01*
X194636190Y-64557142D01*
X194636190Y-64938095D01*
X194207619Y-63985714D02*
X194160000Y-63938095D01*
X194112380Y-63842857D01*
X194112380Y-63604761D01*
X194160000Y-63509523D01*
X194207619Y-63461904D01*
X194302857Y-63414285D01*
X194398095Y-63414285D01*
X194540952Y-63461904D01*
X195112380Y-64033333D01*
X195112380Y-63414285D01*
%TO.C,R1*%
X188269046Y-63866666D02*
X187792856Y-64200000D01*
X188269046Y-64438095D02*
X187269046Y-64438095D01*
X187269046Y-64057142D01*
X187316666Y-63961904D01*
X187364285Y-63914285D01*
X187459523Y-63866666D01*
X187602380Y-63866666D01*
X187697618Y-63914285D01*
X187745237Y-63961904D01*
X187792856Y-64057142D01*
X187792856Y-64438095D01*
X188269046Y-62914285D02*
X188269046Y-63485714D01*
X188269046Y-63200000D02*
X187269046Y-63200000D01*
X187411904Y-63295238D01*
X187507142Y-63390476D01*
X187554761Y-63485714D01*
%TO.C,U12*%
X117157380Y-105523095D02*
X117966904Y-105523095D01*
X118062142Y-105475476D01*
X118109761Y-105427857D01*
X118157380Y-105332619D01*
X118157380Y-105142142D01*
X118109761Y-105046904D01*
X118062142Y-104999285D01*
X117966904Y-104951666D01*
X117157380Y-104951666D01*
X118157380Y-103951666D02*
X118157380Y-104523095D01*
X118157380Y-104237380D02*
X117157380Y-104237380D01*
X117300238Y-104332619D01*
X117395476Y-104427857D01*
X117443095Y-104523095D01*
X117252619Y-103570714D02*
X117205000Y-103523095D01*
X117157380Y-103427857D01*
X117157380Y-103189761D01*
X117205000Y-103094523D01*
X117252619Y-103046904D01*
X117347857Y-102999285D01*
X117443095Y-102999285D01*
X117585952Y-103046904D01*
X118157380Y-103618333D01*
X118157380Y-102999285D01*
%TO.C,U11*%
X135102380Y-105568095D02*
X135911904Y-105568095D01*
X136007142Y-105520476D01*
X136054761Y-105472857D01*
X136102380Y-105377619D01*
X136102380Y-105187142D01*
X136054761Y-105091904D01*
X136007142Y-105044285D01*
X135911904Y-104996666D01*
X135102380Y-104996666D01*
X136102380Y-103996666D02*
X136102380Y-104568095D01*
X136102380Y-104282380D02*
X135102380Y-104282380D01*
X135245238Y-104377619D01*
X135340476Y-104472857D01*
X135388095Y-104568095D01*
X136102380Y-103044285D02*
X136102380Y-103615714D01*
X136102380Y-103330000D02*
X135102380Y-103330000D01*
X135245238Y-103425238D01*
X135340476Y-103520476D01*
X135388095Y-103615714D01*
%TO.C,U10*%
X182452380Y-96738095D02*
X183261904Y-96738095D01*
X183357142Y-96690476D01*
X183404761Y-96642857D01*
X183452380Y-96547619D01*
X183452380Y-96357142D01*
X183404761Y-96261904D01*
X183357142Y-96214285D01*
X183261904Y-96166666D01*
X182452380Y-96166666D01*
X183452380Y-95166666D02*
X183452380Y-95738095D01*
X183452380Y-95452380D02*
X182452380Y-95452380D01*
X182595238Y-95547619D01*
X182690476Y-95642857D01*
X182738095Y-95738095D01*
X182452380Y-94547619D02*
X182452380Y-94452380D01*
X182500000Y-94357142D01*
X182547619Y-94309523D01*
X182642857Y-94261904D01*
X182833333Y-94214285D01*
X183071428Y-94214285D01*
X183261904Y-94261904D01*
X183357142Y-94309523D01*
X183404761Y-94357142D01*
X183452380Y-94452380D01*
X183452380Y-94547619D01*
X183404761Y-94642857D01*
X183357142Y-94690476D01*
X183261904Y-94738095D01*
X183071428Y-94785714D01*
X182833333Y-94785714D01*
X182642857Y-94738095D01*
X182547619Y-94690476D01*
X182500000Y-94642857D01*
X182452380Y-94547619D01*
%TO.C,U9*%
X200212380Y-104461904D02*
X201021904Y-104461904D01*
X201117142Y-104414285D01*
X201164761Y-104366666D01*
X201212380Y-104271428D01*
X201212380Y-104080952D01*
X201164761Y-103985714D01*
X201117142Y-103938095D01*
X201021904Y-103890476D01*
X200212380Y-103890476D01*
X201212380Y-103366666D02*
X201212380Y-103176190D01*
X201164761Y-103080952D01*
X201117142Y-103033333D01*
X200974285Y-102938095D01*
X200783809Y-102890476D01*
X200402857Y-102890476D01*
X200307619Y-102938095D01*
X200260000Y-102985714D01*
X200212380Y-103080952D01*
X200212380Y-103271428D01*
X200260000Y-103366666D01*
X200307619Y-103414285D01*
X200402857Y-103461904D01*
X200640952Y-103461904D01*
X200736190Y-103414285D01*
X200783809Y-103366666D01*
X200831428Y-103271428D01*
X200831428Y-103080952D01*
X200783809Y-102985714D01*
X200736190Y-102938095D01*
X200640952Y-102890476D01*
%TO.C,U8*%
X125802380Y-63601904D02*
X126611904Y-63601904D01*
X126707142Y-63554285D01*
X126754761Y-63506666D01*
X126802380Y-63411428D01*
X126802380Y-63220952D01*
X126754761Y-63125714D01*
X126707142Y-63078095D01*
X126611904Y-63030476D01*
X125802380Y-63030476D01*
X126230952Y-62411428D02*
X126183333Y-62506666D01*
X126135714Y-62554285D01*
X126040476Y-62601904D01*
X125992857Y-62601904D01*
X125897619Y-62554285D01*
X125850000Y-62506666D01*
X125802380Y-62411428D01*
X125802380Y-62220952D01*
X125850000Y-62125714D01*
X125897619Y-62078095D01*
X125992857Y-62030476D01*
X126040476Y-62030476D01*
X126135714Y-62078095D01*
X126183333Y-62125714D01*
X126230952Y-62220952D01*
X126230952Y-62411428D01*
X126278571Y-62506666D01*
X126326190Y-62554285D01*
X126421428Y-62601904D01*
X126611904Y-62601904D01*
X126707142Y-62554285D01*
X126754761Y-62506666D01*
X126802380Y-62411428D01*
X126802380Y-62220952D01*
X126754761Y-62125714D01*
X126707142Y-62078095D01*
X126611904Y-62030476D01*
X126421428Y-62030476D01*
X126326190Y-62078095D01*
X126278571Y-62125714D01*
X126230952Y-62220952D01*
%TO.C,U7*%
X161447619Y-62258095D02*
X160638095Y-62258095D01*
X160542857Y-62305714D01*
X160495238Y-62353333D01*
X160447619Y-62448571D01*
X160447619Y-62639047D01*
X160495238Y-62734285D01*
X160542857Y-62781904D01*
X160638095Y-62829523D01*
X161447619Y-62829523D01*
X161447619Y-63210476D02*
X161447619Y-63877142D01*
X160447619Y-63448571D01*
%TO.C,J21*%
X134372380Y-77659523D02*
X135086666Y-77659523D01*
X135229523Y-77707142D01*
X135324761Y-77802380D01*
X135372380Y-77945238D01*
X135372380Y-78040476D01*
X134467619Y-77230952D02*
X134420000Y-77183333D01*
X134372380Y-77088095D01*
X134372380Y-76850000D01*
X134420000Y-76754761D01*
X134467619Y-76707142D01*
X134562857Y-76659523D01*
X134658095Y-76659523D01*
X134800952Y-76707142D01*
X135372380Y-77278571D01*
X135372380Y-76659523D01*
X135372380Y-75707142D02*
X135372380Y-76278571D01*
X135372380Y-75992857D02*
X134372380Y-75992857D01*
X134515238Y-76088095D01*
X134610476Y-76183333D01*
X134658095Y-76278571D01*
%TO.C,J20*%
X146947380Y-77599523D02*
X147661666Y-77599523D01*
X147804523Y-77647142D01*
X147899761Y-77742380D01*
X147947380Y-77885238D01*
X147947380Y-77980476D01*
X147042619Y-77170952D02*
X146995000Y-77123333D01*
X146947380Y-77028095D01*
X146947380Y-76790000D01*
X146995000Y-76694761D01*
X147042619Y-76647142D01*
X147137857Y-76599523D01*
X147233095Y-76599523D01*
X147375952Y-76647142D01*
X147947380Y-77218571D01*
X147947380Y-76599523D01*
X146947380Y-75980476D02*
X146947380Y-75885238D01*
X146995000Y-75790000D01*
X147042619Y-75742380D01*
X147137857Y-75694761D01*
X147328333Y-75647142D01*
X147566428Y-75647142D01*
X147756904Y-75694761D01*
X147852142Y-75742380D01*
X147899761Y-75790000D01*
X147947380Y-75885238D01*
X147947380Y-75980476D01*
X147899761Y-76075714D01*
X147852142Y-76123333D01*
X147756904Y-76170952D01*
X147566428Y-76218571D01*
X147328333Y-76218571D01*
X147137857Y-76170952D01*
X147042619Y-76123333D01*
X146995000Y-76075714D01*
X146947380Y-75980476D01*
%TO.C,J19*%
X225690476Y-117182380D02*
X225690476Y-117896666D01*
X225642857Y-118039523D01*
X225547619Y-118134761D01*
X225404761Y-118182380D01*
X225309523Y-118182380D01*
X226690476Y-118182380D02*
X226119047Y-118182380D01*
X226404761Y-118182380D02*
X226404761Y-117182380D01*
X226309523Y-117325238D01*
X226214285Y-117420476D01*
X226119047Y-117468095D01*
X227166666Y-118182380D02*
X227357142Y-118182380D01*
X227452380Y-118134761D01*
X227500000Y-118087142D01*
X227595238Y-117944285D01*
X227642857Y-117753809D01*
X227642857Y-117372857D01*
X227595238Y-117277619D01*
X227547619Y-117230000D01*
X227452380Y-117182380D01*
X227261904Y-117182380D01*
X227166666Y-117230000D01*
X227119047Y-117277619D01*
X227071428Y-117372857D01*
X227071428Y-117610952D01*
X227119047Y-117706190D01*
X227166666Y-117753809D01*
X227261904Y-117801428D01*
X227452380Y-117801428D01*
X227547619Y-117753809D01*
X227595238Y-117706190D01*
X227642857Y-117610952D01*
%TO.C,J18*%
X225690476Y-131982380D02*
X225690476Y-132696666D01*
X225642857Y-132839523D01*
X225547619Y-132934761D01*
X225404761Y-132982380D01*
X225309523Y-132982380D01*
X226690476Y-132982380D02*
X226119047Y-132982380D01*
X226404761Y-132982380D02*
X226404761Y-131982380D01*
X226309523Y-132125238D01*
X226214285Y-132220476D01*
X226119047Y-132268095D01*
X227261904Y-132410952D02*
X227166666Y-132363333D01*
X227119047Y-132315714D01*
X227071428Y-132220476D01*
X227071428Y-132172857D01*
X227119047Y-132077619D01*
X227166666Y-132030000D01*
X227261904Y-131982380D01*
X227452380Y-131982380D01*
X227547619Y-132030000D01*
X227595238Y-132077619D01*
X227642857Y-132172857D01*
X227642857Y-132220476D01*
X227595238Y-132315714D01*
X227547619Y-132363333D01*
X227452380Y-132410952D01*
X227261904Y-132410952D01*
X227166666Y-132458571D01*
X227119047Y-132506190D01*
X227071428Y-132601428D01*
X227071428Y-132791904D01*
X227119047Y-132887142D01*
X227166666Y-132934761D01*
X227261904Y-132982380D01*
X227452380Y-132982380D01*
X227547619Y-132934761D01*
X227595238Y-132887142D01*
X227642857Y-132791904D01*
X227642857Y-132601428D01*
X227595238Y-132506190D01*
X227547619Y-132458571D01*
X227452380Y-132410952D01*
%TO.C,J17*%
X161542380Y-118759523D02*
X162256666Y-118759523D01*
X162399523Y-118807142D01*
X162494761Y-118902380D01*
X162542380Y-119045238D01*
X162542380Y-119140476D01*
X162542380Y-117759523D02*
X162542380Y-118330952D01*
X162542380Y-118045238D02*
X161542380Y-118045238D01*
X161685238Y-118140476D01*
X161780476Y-118235714D01*
X161828095Y-118330952D01*
X161542380Y-117426190D02*
X161542380Y-116759523D01*
X162542380Y-117188095D01*
%TO.C,J16*%
X225690476Y-146782380D02*
X225690476Y-147496666D01*
X225642857Y-147639523D01*
X225547619Y-147734761D01*
X225404761Y-147782380D01*
X225309523Y-147782380D01*
X226690476Y-147782380D02*
X226119047Y-147782380D01*
X226404761Y-147782380D02*
X226404761Y-146782380D01*
X226309523Y-146925238D01*
X226214285Y-147020476D01*
X226119047Y-147068095D01*
X227547619Y-146782380D02*
X227357142Y-146782380D01*
X227261904Y-146830000D01*
X227214285Y-146877619D01*
X227119047Y-147020476D01*
X227071428Y-147210952D01*
X227071428Y-147591904D01*
X227119047Y-147687142D01*
X227166666Y-147734761D01*
X227261904Y-147782380D01*
X227452380Y-147782380D01*
X227547619Y-147734761D01*
X227595238Y-147687142D01*
X227642857Y-147591904D01*
X227642857Y-147353809D01*
X227595238Y-147258571D01*
X227547619Y-147210952D01*
X227452380Y-147163333D01*
X227261904Y-147163333D01*
X227166666Y-147210952D01*
X227119047Y-147258571D01*
X227071428Y-147353809D01*
%TO.C,J15*%
X225690476Y-102382380D02*
X225690476Y-103096666D01*
X225642857Y-103239523D01*
X225547619Y-103334761D01*
X225404761Y-103382380D01*
X225309523Y-103382380D01*
X226690476Y-103382380D02*
X226119047Y-103382380D01*
X226404761Y-103382380D02*
X226404761Y-102382380D01*
X226309523Y-102525238D01*
X226214285Y-102620476D01*
X226119047Y-102668095D01*
X227595238Y-102382380D02*
X227119047Y-102382380D01*
X227071428Y-102858571D01*
X227119047Y-102810952D01*
X227214285Y-102763333D01*
X227452380Y-102763333D01*
X227547619Y-102810952D01*
X227595238Y-102858571D01*
X227642857Y-102953809D01*
X227642857Y-103191904D01*
X227595238Y-103287142D01*
X227547619Y-103334761D01*
X227452380Y-103382380D01*
X227214285Y-103382380D01*
X227119047Y-103334761D01*
X227071428Y-103287142D01*
%TO.C,J14*%
X225690476Y-87582380D02*
X225690476Y-88296666D01*
X225642857Y-88439523D01*
X225547619Y-88534761D01*
X225404761Y-88582380D01*
X225309523Y-88582380D01*
X226690476Y-88582380D02*
X226119047Y-88582380D01*
X226404761Y-88582380D02*
X226404761Y-87582380D01*
X226309523Y-87725238D01*
X226214285Y-87820476D01*
X226119047Y-87868095D01*
X227547619Y-87915714D02*
X227547619Y-88582380D01*
X227309523Y-87534761D02*
X227071428Y-88249047D01*
X227690476Y-88249047D01*
%TO.C,J13*%
X225690476Y-72782380D02*
X225690476Y-73496666D01*
X225642857Y-73639523D01*
X225547619Y-73734761D01*
X225404761Y-73782380D01*
X225309523Y-73782380D01*
X226690476Y-73782380D02*
X226119047Y-73782380D01*
X226404761Y-73782380D02*
X226404761Y-72782380D01*
X226309523Y-72925238D01*
X226214285Y-73020476D01*
X226119047Y-73068095D01*
X227023809Y-72782380D02*
X227642857Y-72782380D01*
X227309523Y-73163333D01*
X227452380Y-73163333D01*
X227547619Y-73210952D01*
X227595238Y-73258571D01*
X227642857Y-73353809D01*
X227642857Y-73591904D01*
X227595238Y-73687142D01*
X227547619Y-73734761D01*
X227452380Y-73782380D01*
X227166666Y-73782380D01*
X227071428Y-73734761D01*
X227023809Y-73687142D01*
%TO.C,J12*%
X211957380Y-118729523D02*
X212671666Y-118729523D01*
X212814523Y-118777142D01*
X212909761Y-118872380D01*
X212957380Y-119015238D01*
X212957380Y-119110476D01*
X212957380Y-117729523D02*
X212957380Y-118300952D01*
X212957380Y-118015238D02*
X211957380Y-118015238D01*
X212100238Y-118110476D01*
X212195476Y-118205714D01*
X212243095Y-118300952D01*
X212052619Y-117348571D02*
X212005000Y-117300952D01*
X211957380Y-117205714D01*
X211957380Y-116967619D01*
X212005000Y-116872380D01*
X212052619Y-116824761D01*
X212147857Y-116777142D01*
X212243095Y-116777142D01*
X212385952Y-116824761D01*
X212957380Y-117396190D01*
X212957380Y-116777142D01*
%TO.C,J11*%
X159280476Y-111642380D02*
X159280476Y-112356666D01*
X159232857Y-112499523D01*
X159137619Y-112594761D01*
X158994761Y-112642380D01*
X158899523Y-112642380D01*
X160280476Y-112642380D02*
X159709047Y-112642380D01*
X159994761Y-112642380D02*
X159994761Y-111642380D01*
X159899523Y-111785238D01*
X159804285Y-111880476D01*
X159709047Y-111928095D01*
X161232857Y-112642380D02*
X160661428Y-112642380D01*
X160947142Y-112642380D02*
X160947142Y-111642380D01*
X160851904Y-111785238D01*
X160756666Y-111880476D01*
X160661428Y-111928095D01*
%TO.C,J10*%
X154680476Y-111642380D02*
X154680476Y-112356666D01*
X154632857Y-112499523D01*
X154537619Y-112594761D01*
X154394761Y-112642380D01*
X154299523Y-112642380D01*
X155680476Y-112642380D02*
X155109047Y-112642380D01*
X155394761Y-112642380D02*
X155394761Y-111642380D01*
X155299523Y-111785238D01*
X155204285Y-111880476D01*
X155109047Y-111928095D01*
X156299523Y-111642380D02*
X156394761Y-111642380D01*
X156490000Y-111690000D01*
X156537619Y-111737619D01*
X156585238Y-111832857D01*
X156632857Y-112023333D01*
X156632857Y-112261428D01*
X156585238Y-112451904D01*
X156537619Y-112547142D01*
X156490000Y-112594761D01*
X156394761Y-112642380D01*
X156299523Y-112642380D01*
X156204285Y-112594761D01*
X156156666Y-112547142D01*
X156109047Y-112451904D01*
X156061428Y-112261428D01*
X156061428Y-112023333D01*
X156109047Y-111832857D01*
X156156666Y-111737619D01*
X156204285Y-111690000D01*
X156299523Y-111642380D01*
%TO.C,J9*%
X164356666Y-111642380D02*
X164356666Y-112356666D01*
X164309047Y-112499523D01*
X164213809Y-112594761D01*
X164070952Y-112642380D01*
X163975714Y-112642380D01*
X164880476Y-112642380D02*
X165070952Y-112642380D01*
X165166190Y-112594761D01*
X165213809Y-112547142D01*
X165309047Y-112404285D01*
X165356666Y-112213809D01*
X165356666Y-111832857D01*
X165309047Y-111737619D01*
X165261428Y-111690000D01*
X165166190Y-111642380D01*
X164975714Y-111642380D01*
X164880476Y-111690000D01*
X164832857Y-111737619D01*
X164785238Y-111832857D01*
X164785238Y-112070952D01*
X164832857Y-112166190D01*
X164880476Y-112213809D01*
X164975714Y-112261428D01*
X165166190Y-112261428D01*
X165261428Y-112213809D01*
X165309047Y-112166190D01*
X165356666Y-112070952D01*
%TO.C,J8*%
X158602380Y-122833333D02*
X159316666Y-122833333D01*
X159459523Y-122880952D01*
X159554761Y-122976190D01*
X159602380Y-123119047D01*
X159602380Y-123214285D01*
X159030952Y-122214285D02*
X158983333Y-122309523D01*
X158935714Y-122357142D01*
X158840476Y-122404761D01*
X158792857Y-122404761D01*
X158697619Y-122357142D01*
X158650000Y-122309523D01*
X158602380Y-122214285D01*
X158602380Y-122023809D01*
X158650000Y-121928571D01*
X158697619Y-121880952D01*
X158792857Y-121833333D01*
X158840476Y-121833333D01*
X158935714Y-121880952D01*
X158983333Y-121928571D01*
X159030952Y-122023809D01*
X159030952Y-122214285D01*
X159078571Y-122309523D01*
X159126190Y-122357142D01*
X159221428Y-122404761D01*
X159411904Y-122404761D01*
X159507142Y-122357142D01*
X159554761Y-122309523D01*
X159602380Y-122214285D01*
X159602380Y-122023809D01*
X159554761Y-121928571D01*
X159507142Y-121880952D01*
X159411904Y-121833333D01*
X159221428Y-121833333D01*
X159126190Y-121880952D01*
X159078571Y-121928571D01*
X159030952Y-122023809D01*
%TO.C,J5*%
X171357380Y-122808333D02*
X172071666Y-122808333D01*
X172214523Y-122855952D01*
X172309761Y-122951190D01*
X172357380Y-123094047D01*
X172357380Y-123189285D01*
X171357380Y-121855952D02*
X171357380Y-122332142D01*
X171833571Y-122379761D01*
X171785952Y-122332142D01*
X171738333Y-122236904D01*
X171738333Y-121998809D01*
X171785952Y-121903571D01*
X171833571Y-121855952D01*
X171928809Y-121808333D01*
X172166904Y-121808333D01*
X172262142Y-121855952D01*
X172309761Y-121903571D01*
X172357380Y-121998809D01*
X172357380Y-122236904D01*
X172309761Y-122332142D01*
X172262142Y-122379761D01*
%TO.C,J3*%
X171472380Y-90143333D02*
X172186666Y-90143333D01*
X172329523Y-90190952D01*
X172424761Y-90286190D01*
X172472380Y-90429047D01*
X172472380Y-90524285D01*
X171472380Y-89762380D02*
X171472380Y-89143333D01*
X171853333Y-89476666D01*
X171853333Y-89333809D01*
X171900952Y-89238571D01*
X171948571Y-89190952D01*
X172043809Y-89143333D01*
X172281904Y-89143333D01*
X172377142Y-89190952D01*
X172424761Y-89238571D01*
X172472380Y-89333809D01*
X172472380Y-89619523D01*
X172424761Y-89714761D01*
X172377142Y-89762380D01*
%TO.C,J1*%
X151122380Y-133833333D02*
X151836666Y-133833333D01*
X151979523Y-133880952D01*
X152074761Y-133976190D01*
X152122380Y-134119047D01*
X152122380Y-134214285D01*
X152122380Y-132833333D02*
X152122380Y-133404761D01*
X152122380Y-133119047D02*
X151122380Y-133119047D01*
X151265238Y-133214285D01*
X151360476Y-133309523D01*
X151408095Y-133404761D01*
D11*
%TO.C,C20*%
X120533000Y-82779000D02*
X128467000Y-82779000D01*
X122948000Y-79939000D02*
X126052000Y-79939000D01*
X122334000Y-80259000D02*
X123460000Y-80259000D01*
X125540000Y-82059000D02*
X128222000Y-82059000D01*
X121555000Y-80899000D02*
X123460000Y-80899000D01*
X120498000Y-82939000D02*
X128502000Y-82939000D01*
X125540000Y-81739000D02*
X128062000Y-81739000D01*
X120543000Y-82739000D02*
X128457000Y-82739000D01*
X125540000Y-81499000D02*
X127918000Y-81499000D01*
X120695000Y-82259000D02*
X123460000Y-82259000D01*
X125540000Y-81139000D02*
X127656000Y-81139000D01*
X123047000Y-79899000D02*
X125953000Y-79899000D01*
X120506000Y-82899000D02*
X128494000Y-82899000D01*
X120426000Y-83500000D02*
X128574000Y-83500000D01*
X122536000Y-80139000D02*
X126464000Y-80139000D01*
X120448000Y-83260000D02*
X128552000Y-83260000D01*
X125540000Y-80659000D02*
X127197000Y-80659000D01*
X125540000Y-80539000D02*
X127056000Y-80539000D01*
X123967000Y-79659000D02*
X125033000Y-79659000D01*
X125540000Y-80859000D02*
X127407000Y-80859000D01*
X125540000Y-81419000D02*
X127865000Y-81419000D01*
X120443000Y-83300000D02*
X128557000Y-83300000D01*
X120420000Y-83660000D02*
X128580000Y-83660000D01*
X125540000Y-81379000D02*
X127838000Y-81379000D01*
X120960000Y-81699000D02*
X123460000Y-81699000D01*
X121849000Y-80619000D02*
X123460000Y-80619000D01*
X122213000Y-80339000D02*
X123460000Y-80339000D01*
X121944000Y-80539000D02*
X123460000Y-80539000D01*
X121082000Y-81499000D02*
X123460000Y-81499000D01*
X125540000Y-81059000D02*
X127590000Y-81059000D01*
X121759000Y-80699000D02*
X123460000Y-80699000D01*
X125540000Y-82259000D02*
X128305000Y-82259000D01*
X123271000Y-79819000D02*
X125729000Y-79819000D01*
X120598000Y-82539000D02*
X128402000Y-82539000D01*
X120796000Y-82019000D02*
X123460000Y-82019000D01*
X121344000Y-81139000D02*
X123460000Y-81139000D01*
X122185000Y-88149698D02*
X122185000Y-87349698D01*
X120515000Y-82859000D02*
X128485000Y-82859000D01*
X120623000Y-82459000D02*
X128377000Y-82459000D01*
X120470000Y-83100000D02*
X128530000Y-83100000D01*
X120743000Y-82139000D02*
X123460000Y-82139000D01*
X121445000Y-81019000D02*
X123460000Y-81019000D01*
X122398000Y-80219000D02*
X123460000Y-80219000D01*
X120586000Y-82579000D02*
X128414000Y-82579000D01*
X121162000Y-81379000D02*
X123460000Y-81379000D01*
X123552000Y-79739000D02*
X125448000Y-79739000D01*
X120814000Y-81979000D02*
X123460000Y-81979000D01*
X122687000Y-80059000D02*
X126313000Y-80059000D01*
X125540000Y-81619000D02*
X127993000Y-81619000D01*
X120637000Y-82419000D02*
X128363000Y-82419000D01*
X120853000Y-81899000D02*
X123460000Y-81899000D01*
X125540000Y-80899000D02*
X127445000Y-80899000D01*
X123154000Y-79859000D02*
X125846000Y-79859000D01*
X125540000Y-81659000D02*
X128017000Y-81659000D01*
X121785000Y-87749698D02*
X122585000Y-87749698D01*
X121108000Y-81459000D02*
X123460000Y-81459000D01*
X120778000Y-82059000D02*
X123460000Y-82059000D01*
X125540000Y-82099000D02*
X128240000Y-82099000D01*
X120564000Y-82659000D02*
X128436000Y-82659000D01*
X125540000Y-81579000D02*
X127969000Y-81579000D01*
X125540000Y-81019000D02*
X127555000Y-81019000D01*
X121376000Y-81099000D02*
X123460000Y-81099000D01*
X120432000Y-83420000D02*
X128568000Y-83420000D01*
X125540000Y-82179000D02*
X128274000Y-82179000D01*
X122046000Y-80459000D02*
X123460000Y-80459000D01*
X125540000Y-80299000D02*
X126728000Y-80299000D01*
X120575000Y-82619000D02*
X128425000Y-82619000D01*
X122855000Y-79979000D02*
X126145000Y-79979000D01*
X121056000Y-81539000D02*
X123460000Y-81539000D01*
X120458000Y-83180000D02*
X128542000Y-83180000D01*
X125540000Y-81099000D02*
X127624000Y-81099000D01*
X121896000Y-80579000D02*
X123460000Y-80579000D01*
X125540000Y-80219000D02*
X126602000Y-80219000D01*
X123402000Y-79779000D02*
X125598000Y-79779000D01*
X120916000Y-81779000D02*
X123460000Y-81779000D01*
X121311000Y-81179000D02*
X123460000Y-81179000D01*
X120524000Y-82819000D02*
X128476000Y-82819000D01*
X121716000Y-80739000D02*
X123460000Y-80739000D01*
X120611000Y-82499000D02*
X128389000Y-82499000D01*
X123732000Y-79699000D02*
X125268000Y-79699000D01*
X125540000Y-82219000D02*
X128290000Y-82219000D01*
X125540000Y-81699000D02*
X128040000Y-81699000D01*
X120894000Y-81819000D02*
X123460000Y-81819000D01*
X125540000Y-81539000D02*
X127944000Y-81539000D01*
X125540000Y-81939000D02*
X128166000Y-81939000D01*
X125540000Y-81779000D02*
X128084000Y-81779000D01*
X125540000Y-80979000D02*
X127519000Y-80979000D01*
X125540000Y-80419000D02*
X126900000Y-80419000D01*
X120463000Y-83140000D02*
X128537000Y-83140000D01*
X125540000Y-81899000D02*
X128147000Y-81899000D01*
X125540000Y-81979000D02*
X128186000Y-81979000D01*
X125540000Y-81859000D02*
X128127000Y-81859000D01*
X120435000Y-83380000D02*
X128565000Y-83380000D01*
X120452000Y-83220000D02*
X128548000Y-83220000D01*
X122610000Y-80099000D02*
X126390000Y-80099000D01*
X120483000Y-83019000D02*
X128517000Y-83019000D01*
X120665000Y-82339000D02*
X128335000Y-82339000D01*
X125540000Y-81459000D02*
X127892000Y-81459000D01*
X125540000Y-81299000D02*
X127780000Y-81299000D01*
X121481000Y-80979000D02*
X123460000Y-80979000D01*
X125540000Y-82139000D02*
X128257000Y-82139000D01*
X122100000Y-80419000D02*
X123460000Y-80419000D01*
X121135000Y-81419000D02*
X123460000Y-81419000D01*
X120834000Y-81939000D02*
X123460000Y-81939000D01*
X120429000Y-83460000D02*
X128571000Y-83460000D01*
X121517000Y-80939000D02*
X123460000Y-80939000D01*
X125540000Y-80499000D02*
X127005000Y-80499000D01*
X120679000Y-82299000D02*
X128321000Y-82299000D01*
X120421000Y-83620000D02*
X128579000Y-83620000D01*
X122272000Y-80299000D02*
X123460000Y-80299000D01*
X125540000Y-80579000D02*
X127104000Y-80579000D01*
X125540000Y-81819000D02*
X128106000Y-81819000D01*
X120423000Y-83580000D02*
X128577000Y-83580000D01*
X125540000Y-81259000D02*
X127750000Y-81259000D01*
X120726000Y-82179000D02*
X123460000Y-82179000D01*
X125540000Y-80939000D02*
X127483000Y-80939000D01*
X120983000Y-81659000D02*
X123460000Y-81659000D01*
X121674000Y-80779000D02*
X123460000Y-80779000D01*
X120760000Y-82099000D02*
X123460000Y-82099000D01*
X125540000Y-80739000D02*
X127284000Y-80739000D01*
X125540000Y-80699000D02*
X127241000Y-80699000D01*
X120420000Y-83700000D02*
X128580000Y-83700000D01*
X120476000Y-83060000D02*
X128524000Y-83060000D01*
X120553000Y-82699000D02*
X128447000Y-82699000D01*
X125540000Y-80379000D02*
X126845000Y-80379000D01*
X121031000Y-81579000D02*
X123460000Y-81579000D01*
X120420000Y-83740000D02*
X128580000Y-83740000D01*
X121280000Y-81219000D02*
X123460000Y-81219000D01*
X122155000Y-80379000D02*
X123460000Y-80379000D01*
X121410000Y-81059000D02*
X123460000Y-81059000D01*
X121995000Y-80499000D02*
X123460000Y-80499000D01*
X125540000Y-80459000D02*
X126954000Y-80459000D01*
X120938000Y-81739000D02*
X123460000Y-81739000D01*
X125540000Y-82019000D02*
X128204000Y-82019000D01*
X125540000Y-80339000D02*
X126787000Y-80339000D01*
X120439000Y-83340000D02*
X128561000Y-83340000D01*
X121803000Y-80659000D02*
X123460000Y-80659000D01*
X122466000Y-80179000D02*
X126534000Y-80179000D01*
X125540000Y-81219000D02*
X127720000Y-81219000D01*
X121593000Y-80859000D02*
X123460000Y-80859000D01*
X125540000Y-81339000D02*
X127809000Y-81339000D01*
X120710000Y-82219000D02*
X123460000Y-82219000D01*
X125540000Y-80619000D02*
X127151000Y-80619000D01*
X120490000Y-82979000D02*
X128510000Y-82979000D01*
X125540000Y-80819000D02*
X127367000Y-80819000D01*
X125540000Y-81179000D02*
X127689000Y-81179000D01*
X121633000Y-80819000D02*
X123460000Y-80819000D01*
X125540000Y-80779000D02*
X127326000Y-80779000D01*
X121191000Y-81339000D02*
X123460000Y-81339000D01*
X121220000Y-81299000D02*
X123460000Y-81299000D01*
X120424000Y-83540000D02*
X128576000Y-83540000D01*
X121250000Y-81259000D02*
X123460000Y-81259000D01*
X120873000Y-81859000D02*
X123460000Y-81859000D01*
X121007000Y-81619000D02*
X123460000Y-81619000D01*
X125540000Y-80259000D02*
X126666000Y-80259000D01*
X122769000Y-80019000D02*
X126231000Y-80019000D01*
X120650000Y-82379000D02*
X128350000Y-82379000D01*
X128620000Y-83740000D02*
G75*
G03*
X128620000Y-83740000I-4120000J0D01*
G01*
%TO.C,C19*%
X120533000Y-73039000D02*
X128467000Y-73039000D01*
X122948000Y-70199000D02*
X126052000Y-70199000D01*
X122334000Y-70519000D02*
X123460000Y-70519000D01*
X125540000Y-72319000D02*
X128222000Y-72319000D01*
X121555000Y-71159000D02*
X123460000Y-71159000D01*
X120498000Y-73199000D02*
X128502000Y-73199000D01*
X125540000Y-71999000D02*
X128062000Y-71999000D01*
X120543000Y-72999000D02*
X128457000Y-72999000D01*
X125540000Y-71759000D02*
X127918000Y-71759000D01*
X120695000Y-72519000D02*
X123460000Y-72519000D01*
X125540000Y-71399000D02*
X127656000Y-71399000D01*
X123047000Y-70159000D02*
X125953000Y-70159000D01*
X120506000Y-73159000D02*
X128494000Y-73159000D01*
X120426000Y-73760000D02*
X128574000Y-73760000D01*
X122536000Y-70399000D02*
X126464000Y-70399000D01*
X120448000Y-73520000D02*
X128552000Y-73520000D01*
X125540000Y-70919000D02*
X127197000Y-70919000D01*
X125540000Y-70799000D02*
X127056000Y-70799000D01*
X123967000Y-69919000D02*
X125033000Y-69919000D01*
X125540000Y-71119000D02*
X127407000Y-71119000D01*
X125540000Y-71679000D02*
X127865000Y-71679000D01*
X120443000Y-73560000D02*
X128557000Y-73560000D01*
X120420000Y-73920000D02*
X128580000Y-73920000D01*
X125540000Y-71639000D02*
X127838000Y-71639000D01*
X120960000Y-71959000D02*
X123460000Y-71959000D01*
X121849000Y-70879000D02*
X123460000Y-70879000D01*
X122213000Y-70599000D02*
X123460000Y-70599000D01*
X121944000Y-70799000D02*
X123460000Y-70799000D01*
X121082000Y-71759000D02*
X123460000Y-71759000D01*
X125540000Y-71319000D02*
X127590000Y-71319000D01*
X121759000Y-70959000D02*
X123460000Y-70959000D01*
X125540000Y-72519000D02*
X128305000Y-72519000D01*
X123271000Y-70079000D02*
X125729000Y-70079000D01*
X120598000Y-72799000D02*
X128402000Y-72799000D01*
X120796000Y-72279000D02*
X123460000Y-72279000D01*
X121344000Y-71399000D02*
X123460000Y-71399000D01*
X122185000Y-78409698D02*
X122185000Y-77609698D01*
X120515000Y-73119000D02*
X128485000Y-73119000D01*
X120623000Y-72719000D02*
X128377000Y-72719000D01*
X120470000Y-73360000D02*
X128530000Y-73360000D01*
X120743000Y-72399000D02*
X123460000Y-72399000D01*
X121445000Y-71279000D02*
X123460000Y-71279000D01*
X122398000Y-70479000D02*
X123460000Y-70479000D01*
X120586000Y-72839000D02*
X128414000Y-72839000D01*
X121162000Y-71639000D02*
X123460000Y-71639000D01*
X123552000Y-69999000D02*
X125448000Y-69999000D01*
X120814000Y-72239000D02*
X123460000Y-72239000D01*
X122687000Y-70319000D02*
X126313000Y-70319000D01*
X125540000Y-71879000D02*
X127993000Y-71879000D01*
X120637000Y-72679000D02*
X128363000Y-72679000D01*
X120853000Y-72159000D02*
X123460000Y-72159000D01*
X125540000Y-71159000D02*
X127445000Y-71159000D01*
X123154000Y-70119000D02*
X125846000Y-70119000D01*
X125540000Y-71919000D02*
X128017000Y-71919000D01*
X121785000Y-78009698D02*
X122585000Y-78009698D01*
X121108000Y-71719000D02*
X123460000Y-71719000D01*
X120778000Y-72319000D02*
X123460000Y-72319000D01*
X125540000Y-72359000D02*
X128240000Y-72359000D01*
X120564000Y-72919000D02*
X128436000Y-72919000D01*
X125540000Y-71839000D02*
X127969000Y-71839000D01*
X125540000Y-71279000D02*
X127555000Y-71279000D01*
X121376000Y-71359000D02*
X123460000Y-71359000D01*
X120432000Y-73680000D02*
X128568000Y-73680000D01*
X125540000Y-72439000D02*
X128274000Y-72439000D01*
X122046000Y-70719000D02*
X123460000Y-70719000D01*
X125540000Y-70559000D02*
X126728000Y-70559000D01*
X120575000Y-72879000D02*
X128425000Y-72879000D01*
X122855000Y-70239000D02*
X126145000Y-70239000D01*
X121056000Y-71799000D02*
X123460000Y-71799000D01*
X120458000Y-73440000D02*
X128542000Y-73440000D01*
X125540000Y-71359000D02*
X127624000Y-71359000D01*
X121896000Y-70839000D02*
X123460000Y-70839000D01*
X125540000Y-70479000D02*
X126602000Y-70479000D01*
X123402000Y-70039000D02*
X125598000Y-70039000D01*
X120916000Y-72039000D02*
X123460000Y-72039000D01*
X121311000Y-71439000D02*
X123460000Y-71439000D01*
X120524000Y-73079000D02*
X128476000Y-73079000D01*
X121716000Y-70999000D02*
X123460000Y-70999000D01*
X120611000Y-72759000D02*
X128389000Y-72759000D01*
X123732000Y-69959000D02*
X125268000Y-69959000D01*
X125540000Y-72479000D02*
X128290000Y-72479000D01*
X125540000Y-71959000D02*
X128040000Y-71959000D01*
X120894000Y-72079000D02*
X123460000Y-72079000D01*
X125540000Y-71799000D02*
X127944000Y-71799000D01*
X125540000Y-72199000D02*
X128166000Y-72199000D01*
X125540000Y-72039000D02*
X128084000Y-72039000D01*
X125540000Y-71239000D02*
X127519000Y-71239000D01*
X125540000Y-70679000D02*
X126900000Y-70679000D01*
X120463000Y-73400000D02*
X128537000Y-73400000D01*
X125540000Y-72159000D02*
X128147000Y-72159000D01*
X125540000Y-72239000D02*
X128186000Y-72239000D01*
X125540000Y-72119000D02*
X128127000Y-72119000D01*
X120435000Y-73640000D02*
X128565000Y-73640000D01*
X120452000Y-73480000D02*
X128548000Y-73480000D01*
X122610000Y-70359000D02*
X126390000Y-70359000D01*
X120483000Y-73279000D02*
X128517000Y-73279000D01*
X120665000Y-72599000D02*
X128335000Y-72599000D01*
X125540000Y-71719000D02*
X127892000Y-71719000D01*
X125540000Y-71559000D02*
X127780000Y-71559000D01*
X121481000Y-71239000D02*
X123460000Y-71239000D01*
X125540000Y-72399000D02*
X128257000Y-72399000D01*
X122100000Y-70679000D02*
X123460000Y-70679000D01*
X121135000Y-71679000D02*
X123460000Y-71679000D01*
X120834000Y-72199000D02*
X123460000Y-72199000D01*
X120429000Y-73720000D02*
X128571000Y-73720000D01*
X121517000Y-71199000D02*
X123460000Y-71199000D01*
X125540000Y-70759000D02*
X127005000Y-70759000D01*
X120679000Y-72559000D02*
X128321000Y-72559000D01*
X120421000Y-73880000D02*
X128579000Y-73880000D01*
X122272000Y-70559000D02*
X123460000Y-70559000D01*
X125540000Y-70839000D02*
X127104000Y-70839000D01*
X125540000Y-72079000D02*
X128106000Y-72079000D01*
X120423000Y-73840000D02*
X128577000Y-73840000D01*
X125540000Y-71519000D02*
X127750000Y-71519000D01*
X120726000Y-72439000D02*
X123460000Y-72439000D01*
X125540000Y-71199000D02*
X127483000Y-71199000D01*
X120983000Y-71919000D02*
X123460000Y-71919000D01*
X121674000Y-71039000D02*
X123460000Y-71039000D01*
X120760000Y-72359000D02*
X123460000Y-72359000D01*
X125540000Y-70999000D02*
X127284000Y-70999000D01*
X125540000Y-70959000D02*
X127241000Y-70959000D01*
X120420000Y-73960000D02*
X128580000Y-73960000D01*
X120476000Y-73320000D02*
X128524000Y-73320000D01*
X120553000Y-72959000D02*
X128447000Y-72959000D01*
X125540000Y-70639000D02*
X126845000Y-70639000D01*
X121031000Y-71839000D02*
X123460000Y-71839000D01*
X120420000Y-74000000D02*
X128580000Y-74000000D01*
X121280000Y-71479000D02*
X123460000Y-71479000D01*
X122155000Y-70639000D02*
X123460000Y-70639000D01*
X121410000Y-71319000D02*
X123460000Y-71319000D01*
X121995000Y-70759000D02*
X123460000Y-70759000D01*
X125540000Y-70719000D02*
X126954000Y-70719000D01*
X120938000Y-71999000D02*
X123460000Y-71999000D01*
X125540000Y-72279000D02*
X128204000Y-72279000D01*
X125540000Y-70599000D02*
X126787000Y-70599000D01*
X120439000Y-73600000D02*
X128561000Y-73600000D01*
X121803000Y-70919000D02*
X123460000Y-70919000D01*
X122466000Y-70439000D02*
X126534000Y-70439000D01*
X125540000Y-71479000D02*
X127720000Y-71479000D01*
X121593000Y-71119000D02*
X123460000Y-71119000D01*
X125540000Y-71599000D02*
X127809000Y-71599000D01*
X120710000Y-72479000D02*
X123460000Y-72479000D01*
X125540000Y-70879000D02*
X127151000Y-70879000D01*
X120490000Y-73239000D02*
X128510000Y-73239000D01*
X125540000Y-71079000D02*
X127367000Y-71079000D01*
X125540000Y-71439000D02*
X127689000Y-71439000D01*
X121633000Y-71079000D02*
X123460000Y-71079000D01*
X125540000Y-71039000D02*
X127326000Y-71039000D01*
X121191000Y-71599000D02*
X123460000Y-71599000D01*
X121220000Y-71559000D02*
X123460000Y-71559000D01*
X120424000Y-73800000D02*
X128576000Y-73800000D01*
X121250000Y-71519000D02*
X123460000Y-71519000D01*
X120873000Y-72119000D02*
X123460000Y-72119000D01*
X121007000Y-71879000D02*
X123460000Y-71879000D01*
X125540000Y-70519000D02*
X126666000Y-70519000D01*
X122769000Y-70279000D02*
X126231000Y-70279000D01*
X120650000Y-72639000D02*
X128350000Y-72639000D01*
X128620000Y-74000000D02*
G75*
G03*
X128620000Y-74000000I-4120000J0D01*
G01*
%TO.C,C18*%
X137631252Y-81035000D02*
X137108748Y-81035000D01*
X137631252Y-79565000D02*
X137108748Y-79565000D01*
%TO.C,C17*%
X152348748Y-72955000D02*
X152871252Y-72955000D01*
X152348748Y-74425000D02*
X152871252Y-74425000D01*
%TO.C,C16*%
X219735000Y-133238748D02*
X219735000Y-133761252D01*
X218265000Y-133238748D02*
X218265000Y-133761252D01*
%TO.C,C15*%
X126461252Y-112835000D02*
X125938748Y-112835000D01*
X126461252Y-111365000D02*
X125938748Y-111365000D01*
%TO.C,C14*%
X126271252Y-97475000D02*
X125748748Y-97475000D01*
X126271252Y-96005000D02*
X125748748Y-96005000D01*
%TO.C,C13*%
X140838752Y-115125000D02*
X140316248Y-115125000D01*
X140838752Y-113655000D02*
X140316248Y-113655000D01*
%TO.C,C12*%
X144661252Y-112855000D02*
X144138748Y-112855000D01*
X144661252Y-111385000D02*
X144138748Y-111385000D01*
%TO.C,C11*%
X144441252Y-97515000D02*
X143918748Y-97515000D01*
X144441252Y-96045000D02*
X143918748Y-96045000D01*
%TO.C,C10*%
X176351252Y-112185000D02*
X175828748Y-112185000D01*
X176351252Y-110715000D02*
X175828748Y-110715000D01*
%TO.C,C9*%
X176271252Y-96755000D02*
X175748748Y-96755000D01*
X176271252Y-95285000D02*
X175748748Y-95285000D01*
%TO.C,C8*%
X193078748Y-113525000D02*
X193601252Y-113525000D01*
X193078748Y-114995000D02*
X193601252Y-114995000D01*
%TO.C,C7*%
X209471252Y-112185000D02*
X208948748Y-112185000D01*
X209471252Y-110715000D02*
X208948748Y-110715000D01*
%TO.C,C6*%
X209331252Y-97045000D02*
X208808748Y-97045000D01*
X209331252Y-95575000D02*
X208808748Y-95575000D01*
%TO.C,C5*%
X135198752Y-71525000D02*
X134676248Y-71525000D01*
X135198752Y-70055000D02*
X134676248Y-70055000D01*
%TO.C,C4*%
X135301252Y-55865000D02*
X134778748Y-55865000D01*
X135301252Y-54395000D02*
X134778748Y-54395000D01*
%TO.C,C3*%
X193188748Y-92305000D02*
X193711252Y-92305000D01*
X193188748Y-93775000D02*
X193711252Y-93775000D01*
%TO.C,C2*%
X151741252Y-71175000D02*
X151218748Y-71175000D01*
X151741252Y-69705000D02*
X151218748Y-69705000D01*
%TO.C,C1*%
X151308752Y-55765000D02*
X150786248Y-55765000D01*
X151308752Y-54295000D02*
X150786248Y-54295000D01*
%TO.C,R12*%
X139546666Y-149870000D02*
X139546666Y-140630000D01*
X136106666Y-149870000D02*
X139546666Y-149870000D01*
X136106666Y-140630000D02*
X136106666Y-149870000D01*
X137826666Y-151830000D02*
X137826666Y-149870000D01*
X139546666Y-140630000D02*
X136106666Y-140630000D01*
X137826666Y-138670000D02*
X137826666Y-140630000D01*
%TO.C,R11*%
X128380000Y-140630000D02*
X128380000Y-149870000D01*
X131820000Y-140630000D02*
X128380000Y-140630000D01*
X131820000Y-149870000D02*
X131820000Y-140630000D01*
X130100000Y-138670000D02*
X130100000Y-140630000D01*
X128380000Y-149870000D02*
X131820000Y-149870000D01*
X130100000Y-151830000D02*
X130100000Y-149870000D01*
%TO.C,R10*%
X155000000Y-149870000D02*
X155000000Y-140630000D01*
X151560000Y-149870000D02*
X155000000Y-149870000D01*
X151560000Y-140630000D02*
X151560000Y-149870000D01*
X153280000Y-151830000D02*
X153280000Y-149870000D01*
X155000000Y-140630000D02*
X151560000Y-140630000D01*
X153280000Y-138670000D02*
X153280000Y-140630000D01*
%TO.C,R9*%
X143833332Y-140630000D02*
X143833332Y-149870000D01*
X147273332Y-140630000D02*
X143833332Y-140630000D01*
X147273332Y-149870000D02*
X147273332Y-140630000D01*
X145553332Y-138670000D02*
X145553332Y-140630000D01*
X143833332Y-149870000D02*
X147273332Y-149870000D01*
X145553332Y-151830000D02*
X145553332Y-149870000D01*
%TO.C,R8*%
X192826666Y-138550000D02*
X192826666Y-140510000D01*
X194546666Y-140510000D02*
X191106666Y-140510000D01*
X192826666Y-151710000D02*
X192826666Y-149750000D01*
X191106666Y-140510000D02*
X191106666Y-149750000D01*
X191106666Y-149750000D02*
X194546666Y-149750000D01*
X194546666Y-149750000D02*
X194546666Y-140510000D01*
%TO.C,R7*%
X185410000Y-151710000D02*
X185410000Y-149750000D01*
X183690000Y-149750000D02*
X187130000Y-149750000D01*
X185410000Y-138550000D02*
X185410000Y-140510000D01*
X187130000Y-149750000D02*
X187130000Y-140510000D01*
X187130000Y-140510000D02*
X183690000Y-140510000D01*
X183690000Y-140510000D02*
X183690000Y-149750000D01*
%TO.C,R6*%
X200243332Y-138550000D02*
X200243332Y-140510000D01*
X201963332Y-140510000D02*
X198523332Y-140510000D01*
X200243332Y-151710000D02*
X200243332Y-149750000D01*
X198523332Y-140510000D02*
X198523332Y-149750000D01*
X198523332Y-149750000D02*
X201963332Y-149750000D01*
X201963332Y-149750000D02*
X201963332Y-140510000D01*
%TO.C,R5*%
X207660000Y-151710000D02*
X207660000Y-149750000D01*
X205940000Y-149750000D02*
X209380000Y-149750000D01*
X207660000Y-138550000D02*
X207660000Y-140510000D01*
X209380000Y-149750000D02*
X209380000Y-140510000D01*
X209380000Y-140510000D02*
X205940000Y-140510000D01*
X205940000Y-140510000D02*
X205940000Y-149750000D01*
%TO.C,R4*%
X205510000Y-57120000D02*
X205510000Y-59080000D01*
X207230000Y-59080000D02*
X203790000Y-59080000D01*
X205510000Y-70280000D02*
X205510000Y-68320000D01*
X203790000Y-59080000D02*
X203790000Y-68320000D01*
X203790000Y-68320000D02*
X207230000Y-68320000D01*
X207230000Y-68320000D02*
X207230000Y-59080000D01*
%TO.C,R3*%
X198705554Y-70280000D02*
X198705554Y-68320000D01*
X196985554Y-68320000D02*
X200425554Y-68320000D01*
X198705554Y-57120000D02*
X198705554Y-59080000D01*
X200425554Y-68320000D02*
X200425554Y-59080000D01*
X200425554Y-59080000D02*
X196985554Y-59080000D01*
X196985554Y-59080000D02*
X196985554Y-68320000D01*
%TO.C,R2*%
X191901110Y-57120000D02*
X191901110Y-59080000D01*
X193621110Y-59080000D02*
X190181110Y-59080000D01*
X191901110Y-70280000D02*
X191901110Y-68320000D01*
X190181110Y-59080000D02*
X190181110Y-68320000D01*
X190181110Y-68320000D02*
X193621110Y-68320000D01*
X193621110Y-68320000D02*
X193621110Y-59080000D01*
%TO.C,R1*%
X185096666Y-70280000D02*
X185096666Y-68320000D01*
X183376666Y-68320000D02*
X186816666Y-68320000D01*
X185096666Y-57120000D02*
X185096666Y-59080000D01*
X186816666Y-68320000D02*
X186816666Y-59080000D01*
X186816666Y-59080000D02*
X183376666Y-59080000D01*
X183376666Y-59080000D02*
X183376666Y-68320000D01*
%TO.C,U12*%
X133800000Y-98030000D02*
X118560000Y-98030000D01*
X118560000Y-98030000D02*
X118560000Y-110730000D01*
X118560000Y-110730000D02*
X133800000Y-110730000D01*
X133800000Y-110730000D02*
X133800000Y-98030000D01*
%TO.C,U11*%
X151965000Y-98030000D02*
X136725000Y-98030000D01*
X136725000Y-98030000D02*
X136725000Y-110730000D01*
X136725000Y-110730000D02*
X151965000Y-110730000D01*
X151965000Y-110730000D02*
X151965000Y-98030000D01*
%TO.C,U10*%
X183780000Y-97460000D02*
X168540000Y-97460000D01*
X168540000Y-97460000D02*
X168540000Y-110160000D01*
X168540000Y-110160000D02*
X183780000Y-110160000D01*
X183780000Y-110160000D02*
X183780000Y-97460000D01*
%TO.C,U9*%
X216770000Y-97490000D02*
X201530000Y-97490000D01*
X201530000Y-97490000D02*
X201530000Y-110190000D01*
X201530000Y-110190000D02*
X216770000Y-110190000D01*
X216770000Y-110190000D02*
X216770000Y-97490000D01*
%TO.C,U8*%
X142470000Y-56490000D02*
X127230000Y-56490000D01*
X127230000Y-56490000D02*
X127230000Y-69190000D01*
X127230000Y-69190000D02*
X142470000Y-69190000D01*
X142470000Y-69190000D02*
X142470000Y-56490000D01*
%TO.C,U7*%
X158980000Y-56360000D02*
X143740000Y-56360000D01*
X143740000Y-56360000D02*
X143740000Y-69060000D01*
X143740000Y-69060000D02*
X158980000Y-69060000D01*
X158980000Y-69060000D02*
X158980000Y-56360000D01*
%TO.C,J21*%
X138520000Y-75520000D02*
X146200000Y-75520000D01*
X137250000Y-78180000D02*
X135920000Y-78180000D01*
X146200000Y-78180000D02*
X146200000Y-75520000D01*
X138520000Y-78180000D02*
X138520000Y-75520000D01*
X135920000Y-78180000D02*
X135920000Y-76850000D01*
X138520000Y-78180000D02*
X146200000Y-78180000D01*
%TO.C,J20*%
X156235000Y-78120000D02*
X156235000Y-75460000D01*
X151095000Y-78120000D02*
X156235000Y-78120000D01*
X149825000Y-78120000D02*
X148495000Y-78120000D01*
X151095000Y-75460000D02*
X156235000Y-75460000D01*
X148495000Y-78120000D02*
X148495000Y-76790000D01*
X151095000Y-78120000D02*
X151095000Y-75460000D01*
%TO.C,J19*%
X225170000Y-114130000D02*
X225170000Y-106450000D01*
X227830000Y-115400000D02*
X227830000Y-116730000D01*
X227830000Y-106450000D02*
X225170000Y-106450000D01*
X227830000Y-114130000D02*
X225170000Y-114130000D01*
X227830000Y-116730000D02*
X226500000Y-116730000D01*
X227830000Y-114130000D02*
X227830000Y-106450000D01*
%TO.C,J18*%
X225170000Y-128930000D02*
X225170000Y-121250000D01*
X227830000Y-130200000D02*
X227830000Y-131530000D01*
X227830000Y-121250000D02*
X225170000Y-121250000D01*
X227830000Y-128930000D02*
X225170000Y-128930000D01*
X227830000Y-131530000D02*
X226500000Y-131530000D01*
X227830000Y-128930000D02*
X227830000Y-121250000D01*
%TO.C,J17*%
X122870000Y-116620000D02*
X122870000Y-119280000D01*
X159760000Y-116620000D02*
X161090000Y-116620000D01*
X158490000Y-116620000D02*
X122870000Y-116620000D01*
X161090000Y-116620000D02*
X161090000Y-117950000D01*
X158490000Y-119280000D02*
X122870000Y-119280000D01*
X158490000Y-116620000D02*
X158490000Y-119280000D01*
%TO.C,J16*%
X225170000Y-143730000D02*
X225170000Y-136050000D01*
X227830000Y-145000000D02*
X227830000Y-146330000D01*
X227830000Y-136050000D02*
X225170000Y-136050000D01*
X227830000Y-143730000D02*
X225170000Y-143730000D01*
X227830000Y-146330000D02*
X226500000Y-146330000D01*
X227830000Y-143730000D02*
X227830000Y-136050000D01*
%TO.C,J15*%
X225170000Y-99330000D02*
X225170000Y-91650000D01*
X227830000Y-100600000D02*
X227830000Y-101930000D01*
X227830000Y-91650000D02*
X225170000Y-91650000D01*
X227830000Y-99330000D02*
X225170000Y-99330000D01*
X227830000Y-101930000D02*
X226500000Y-101930000D01*
X227830000Y-99330000D02*
X227830000Y-91650000D01*
%TO.C,J14*%
X225170000Y-84530000D02*
X225170000Y-76850000D01*
X227830000Y-85800000D02*
X227830000Y-87130000D01*
X227830000Y-76850000D02*
X225170000Y-76850000D01*
X227830000Y-84530000D02*
X225170000Y-84530000D01*
X227830000Y-87130000D02*
X226500000Y-87130000D01*
X227830000Y-84530000D02*
X227830000Y-76850000D01*
%TO.C,J13*%
X225170000Y-69730000D02*
X225170000Y-62050000D01*
X227830000Y-71000000D02*
X227830000Y-72330000D01*
X227830000Y-62050000D02*
X225170000Y-62050000D01*
X227830000Y-69730000D02*
X225170000Y-69730000D01*
X227830000Y-72330000D02*
X226500000Y-72330000D01*
X227830000Y-69730000D02*
X227830000Y-62050000D01*
%TO.C,J12*%
X173285000Y-116590000D02*
X173285000Y-119250000D01*
X210175000Y-116590000D02*
X211505000Y-116590000D01*
X208905000Y-116590000D02*
X173285000Y-116590000D01*
X211505000Y-116590000D02*
X211505000Y-117920000D01*
X208905000Y-119250000D02*
X173285000Y-119250000D01*
X208905000Y-116590000D02*
X208905000Y-119250000D01*
%TO.C,J11*%
X161420000Y-95390000D02*
X158760000Y-95390000D01*
X161420000Y-108150000D02*
X161420000Y-95390000D01*
X158760000Y-110750000D02*
X158760000Y-109420000D01*
X158760000Y-108150000D02*
X158760000Y-95390000D01*
X161420000Y-108150000D02*
X158760000Y-108150000D01*
X160090000Y-110750000D02*
X158760000Y-110750000D01*
%TO.C,J10*%
X156820000Y-95390000D02*
X154160000Y-95390000D01*
X156820000Y-108150000D02*
X156820000Y-95390000D01*
X154160000Y-110750000D02*
X154160000Y-109420000D01*
X154160000Y-108150000D02*
X154160000Y-95390000D01*
X156820000Y-108150000D02*
X154160000Y-108150000D01*
X155490000Y-110750000D02*
X154160000Y-110750000D01*
%TO.C,J9*%
X166020000Y-95390000D02*
X163360000Y-95390000D01*
X166020000Y-108150000D02*
X166020000Y-95390000D01*
X163360000Y-110750000D02*
X163360000Y-109420000D01*
X163360000Y-108150000D02*
X163360000Y-95390000D01*
X166020000Y-108150000D02*
X163360000Y-108150000D01*
X164690000Y-110750000D02*
X163360000Y-110750000D01*
%TO.C,J8*%
X160590000Y-122500000D02*
X160590000Y-121170000D01*
X160590000Y-121170000D02*
X161920000Y-121170000D01*
X163190000Y-123830000D02*
X170870000Y-123830000D01*
X163190000Y-123830000D02*
X163190000Y-121170000D01*
X163190000Y-121170000D02*
X170870000Y-121170000D01*
X170870000Y-123830000D02*
X170870000Y-121170000D01*
%TO.C,J5*%
X188705000Y-123805000D02*
X188705000Y-121145000D01*
X175945000Y-123805000D02*
X188705000Y-123805000D01*
X173345000Y-121145000D02*
X174675000Y-121145000D01*
X175945000Y-121145000D02*
X188705000Y-121145000D01*
X175945000Y-123805000D02*
X175945000Y-121145000D01*
X173345000Y-122475000D02*
X173345000Y-121145000D01*
%TO.C,J3*%
X175620000Y-91140000D02*
X175620000Y-88480000D01*
X175620000Y-88480000D02*
X211240000Y-88480000D01*
X173020000Y-91140000D02*
X173020000Y-89810000D01*
X175620000Y-91140000D02*
X211240000Y-91140000D01*
X174350000Y-91140000D02*
X173020000Y-91140000D01*
X211240000Y-91140000D02*
X211240000Y-88480000D01*
%TO.C,J1*%
X154000000Y-134830000D02*
X152670000Y-134830000D01*
X157870000Y-134830000D02*
X157870000Y-132170000D01*
X155270000Y-134830000D02*
X157870000Y-134830000D01*
X155270000Y-134830000D02*
X155270000Y-132170000D01*
X152670000Y-134830000D02*
X152670000Y-133500000D01*
X155270000Y-132170000D02*
X157870000Y-132170000D01*
%TD*%
M02*
