%TF.GenerationSoftware,KiCad,Pcbnew,(6.0.10)*%
%TF.CreationDate,2022-12-29T21:48:34+01:00*%
%TF.ProjectId,Driver,44726976-6572-42e6-9b69-6361645f7063,1.0*%
%TF.SameCoordinates,Original*%
%TF.FileFunction,Legend,Bot*%
%TF.FilePolarity,Positive*%
%FSLAX46Y46*%
G04 Gerber Fmt 4.6, Leading zero omitted, Abs format (unit mm)*
G04 Created by KiCad (PCBNEW (6.0.10)) date 2022-12-29 21:48:34*
%MOMM*%
%LPD*%
G01*
G04 APERTURE LIST*
%ADD10C,0.300000*%
%ADD11C,0.150000*%
%ADD12C,0.120000*%
G04 APERTURE END LIST*
D10*
X217357142Y-53250000D02*
X216642857Y-53250000D01*
X217500000Y-53678571D02*
X217000000Y-52178571D01*
X216500000Y-53678571D01*
X216000000Y-53678571D02*
X216000000Y-52678571D01*
X216000000Y-52964285D02*
X215928571Y-52821428D01*
X215857142Y-52750000D01*
X215714285Y-52678571D01*
X215571428Y-52678571D01*
X215285714Y-52678571D02*
X214714285Y-52678571D01*
X215071428Y-52178571D02*
X215071428Y-53464285D01*
X215000000Y-53607142D01*
X214857142Y-53678571D01*
X214714285Y-53678571D01*
X214357142Y-52678571D02*
X214000000Y-53678571D01*
X213642857Y-52678571D02*
X214000000Y-53678571D01*
X214142857Y-54035714D01*
X214214285Y-54107142D01*
X214357142Y-54178571D01*
X212071428Y-52678571D02*
X211285714Y-52678571D01*
X212071428Y-53678571D01*
X211285714Y-53678571D01*
X210857142Y-52178571D02*
X209857142Y-52178571D01*
X210500000Y-53678571D01*
X208142857Y-53678571D02*
X208142857Y-52178571D01*
X207142857Y-52178571D02*
X206857142Y-52178571D01*
X206714285Y-52250000D01*
X206571428Y-52392857D01*
X206500000Y-52678571D01*
X206500000Y-53178571D01*
X206571428Y-53464285D01*
X206714285Y-53607142D01*
X206857142Y-53678571D01*
X207142857Y-53678571D01*
X207285714Y-53607142D01*
X207428571Y-53464285D01*
X207500000Y-53178571D01*
X207500000Y-52678571D01*
X207428571Y-52392857D01*
X207285714Y-52250000D01*
X207142857Y-52178571D01*
X204714285Y-53678571D02*
X204714285Y-52178571D01*
X204714285Y-52750000D02*
X204571428Y-52678571D01*
X204285714Y-52678571D01*
X204142857Y-52750000D01*
X204071428Y-52821428D01*
X204000000Y-52964285D01*
X204000000Y-53392857D01*
X204071428Y-53535714D01*
X204142857Y-53607142D01*
X204285714Y-53678571D01*
X204571428Y-53678571D01*
X204714285Y-53607142D01*
X203142857Y-53678571D02*
X203285714Y-53607142D01*
X203357142Y-53535714D01*
X203428571Y-53392857D01*
X203428571Y-52964285D01*
X203357142Y-52821428D01*
X203285714Y-52750000D01*
X203142857Y-52678571D01*
X202928571Y-52678571D01*
X202785714Y-52750000D01*
X202714285Y-52821428D01*
X202642857Y-52964285D01*
X202642857Y-53392857D01*
X202714285Y-53535714D01*
X202785714Y-53607142D01*
X202928571Y-53678571D01*
X203142857Y-53678571D01*
X201357142Y-53678571D02*
X201357142Y-52892857D01*
X201428571Y-52750000D01*
X201571428Y-52678571D01*
X201857142Y-52678571D01*
X202000000Y-52750000D01*
X201357142Y-53607142D02*
X201500000Y-53678571D01*
X201857142Y-53678571D01*
X202000000Y-53607142D01*
X202071428Y-53464285D01*
X202071428Y-53321428D01*
X202000000Y-53178571D01*
X201857142Y-53107142D01*
X201500000Y-53107142D01*
X201357142Y-53035714D01*
X200642857Y-53678571D02*
X200642857Y-52678571D01*
X200642857Y-52964285D02*
X200571428Y-52821428D01*
X200500000Y-52750000D01*
X200357142Y-52678571D01*
X200214285Y-52678571D01*
X199071428Y-53678571D02*
X199071428Y-52178571D01*
X199071428Y-53607142D02*
X199214285Y-53678571D01*
X199500000Y-53678571D01*
X199642857Y-53607142D01*
X199714285Y-53535714D01*
X199785714Y-53392857D01*
X199785714Y-52964285D01*
X199714285Y-52821428D01*
X199642857Y-52750000D01*
X199500000Y-52678571D01*
X199214285Y-52678571D01*
X199071428Y-52750000D01*
X196357142Y-53678571D02*
X196857142Y-52964285D01*
X197214285Y-53678571D02*
X197214285Y-52178571D01*
X196642857Y-52178571D01*
X196500000Y-52250000D01*
X196428571Y-52321428D01*
X196357142Y-52464285D01*
X196357142Y-52678571D01*
X196428571Y-52821428D01*
X196500000Y-52892857D01*
X196642857Y-52964285D01*
X197214285Y-52964285D01*
X195142857Y-53607142D02*
X195285714Y-53678571D01*
X195571428Y-53678571D01*
X195714285Y-53607142D01*
X195785714Y-53464285D01*
X195785714Y-52892857D01*
X195714285Y-52750000D01*
X195571428Y-52678571D01*
X195285714Y-52678571D01*
X195142857Y-52750000D01*
X195071428Y-52892857D01*
X195071428Y-53035714D01*
X195785714Y-53178571D01*
X194571428Y-52678571D02*
X194214285Y-53678571D01*
X193857142Y-52678571D01*
X193285714Y-53535714D02*
X193214285Y-53607142D01*
X193285714Y-53678571D01*
X193357142Y-53607142D01*
X193285714Y-53535714D01*
X193285714Y-53678571D01*
X193285714Y-52750000D02*
X193214285Y-52821428D01*
X193285714Y-52892857D01*
X193357142Y-52821428D01*
X193285714Y-52750000D01*
X193285714Y-52892857D01*
X191785714Y-53678571D02*
X192642857Y-53678571D01*
X192214285Y-53678571D02*
X192214285Y-52178571D01*
X192357142Y-52392857D01*
X192500000Y-52535714D01*
X192642857Y-52607142D01*
X191142857Y-53535714D02*
X191071428Y-53607142D01*
X191142857Y-53678571D01*
X191214285Y-53607142D01*
X191142857Y-53535714D01*
X191142857Y-53678571D01*
X190142857Y-52178571D02*
X190000000Y-52178571D01*
X189857142Y-52250000D01*
X189785714Y-52321428D01*
X189714285Y-52464285D01*
X189642857Y-52750000D01*
X189642857Y-53107142D01*
X189714285Y-53392857D01*
X189785714Y-53535714D01*
X189857142Y-53607142D01*
X190000000Y-53678571D01*
X190142857Y-53678571D01*
X190285714Y-53607142D01*
X190357142Y-53535714D01*
X190428571Y-53392857D01*
X190500000Y-53107142D01*
X190500000Y-52750000D01*
X190428571Y-52464285D01*
X190357142Y-52321428D01*
X190285714Y-52250000D01*
X190142857Y-52178571D01*
D11*
%TO.C,J6*%
X139372380Y-82106666D02*
X140086666Y-82106666D01*
X140229523Y-82059047D01*
X140324761Y-81963809D01*
X140372380Y-81820952D01*
X140372380Y-81725714D01*
X139372380Y-83011428D02*
X139372380Y-82820952D01*
X139420000Y-82725714D01*
X139467619Y-82678095D01*
X139610476Y-82582857D01*
X139800952Y-82535238D01*
X140181904Y-82535238D01*
X140277142Y-82582857D01*
X140324761Y-82630476D01*
X140372380Y-82725714D01*
X140372380Y-82916190D01*
X140324761Y-83011428D01*
X140277142Y-83059047D01*
X140181904Y-83106666D01*
X139943809Y-83106666D01*
X139848571Y-83059047D01*
X139800952Y-83011428D01*
X139753333Y-82916190D01*
X139753333Y-82725714D01*
X139800952Y-82630476D01*
X139848571Y-82582857D01*
X139943809Y-82535238D01*
%TO.C,J4*%
X148512380Y-127476666D02*
X149226666Y-127476666D01*
X149369523Y-127429047D01*
X149464761Y-127333809D01*
X149512380Y-127190952D01*
X149512380Y-127095714D01*
X148845714Y-128381428D02*
X149512380Y-128381428D01*
X148464761Y-128143333D02*
X149179047Y-127905238D01*
X149179047Y-128524285D01*
%TO.C,J2*%
X189152380Y-127336666D02*
X189866666Y-127336666D01*
X190009523Y-127289047D01*
X190104761Y-127193809D01*
X190152380Y-127050952D01*
X190152380Y-126955714D01*
X189247619Y-127765238D02*
X189200000Y-127812857D01*
X189152380Y-127908095D01*
X189152380Y-128146190D01*
X189200000Y-128241428D01*
X189247619Y-128289047D01*
X189342857Y-128336666D01*
X189438095Y-128336666D01*
X189580952Y-128289047D01*
X190152380Y-127717619D01*
X190152380Y-128336666D01*
%TO.C,J7*%
X189122380Y-81606666D02*
X189836666Y-81606666D01*
X189979523Y-81559047D01*
X190074761Y-81463809D01*
X190122380Y-81320952D01*
X190122380Y-81225714D01*
X189122380Y-81987619D02*
X189122380Y-82654285D01*
X190122380Y-82225714D01*
D12*
%TO.C,J6*%
X141120000Y-82230000D02*
X141120000Y-84830000D01*
X166640000Y-79630000D02*
X166640000Y-84830000D01*
X142450000Y-79630000D02*
X141120000Y-79630000D01*
X143720000Y-79630000D02*
X166640000Y-79630000D01*
X143720000Y-79630000D02*
X143720000Y-82230000D01*
X141120000Y-79630000D02*
X141120000Y-80960000D01*
X141120000Y-84830000D02*
X166640000Y-84830000D01*
X143720000Y-82230000D02*
X141120000Y-82230000D01*
%TO.C,J4*%
X152810000Y-125350000D02*
X170650000Y-125350000D01*
X152810000Y-127950000D02*
X150210000Y-127950000D01*
X150210000Y-130550000D02*
X170650000Y-130550000D01*
X151540000Y-125350000D02*
X150210000Y-125350000D01*
X152810000Y-125350000D02*
X152810000Y-127950000D01*
X170650000Y-125350000D02*
X170650000Y-130550000D01*
X150210000Y-125350000D02*
X150210000Y-126680000D01*
X150210000Y-127950000D02*
X150210000Y-130550000D01*
%TO.C,J2*%
X175670000Y-127970000D02*
X173070000Y-127970000D01*
X173070000Y-127970000D02*
X173070000Y-130570000D01*
X173070000Y-130570000D02*
X188430000Y-130570000D01*
X174400000Y-125370000D02*
X173070000Y-125370000D01*
X173070000Y-125370000D02*
X173070000Y-126700000D01*
X175670000Y-125370000D02*
X188430000Y-125370000D01*
X175670000Y-125370000D02*
X175670000Y-127970000D01*
X188430000Y-125370000D02*
X188430000Y-130570000D01*
%TO.C,J7*%
X167990000Y-79630000D02*
X167990000Y-80960000D01*
X170590000Y-79630000D02*
X188430000Y-79630000D01*
X170590000Y-79630000D02*
X170590000Y-82230000D01*
X169320000Y-79630000D02*
X167990000Y-79630000D01*
X188430000Y-79630000D02*
X188430000Y-84830000D01*
X167990000Y-82230000D02*
X167990000Y-84830000D01*
X167990000Y-84830000D02*
X188430000Y-84830000D01*
X170590000Y-82230000D02*
X167990000Y-82230000D01*
%TD*%
M02*
